<?xml version="1.0" encoding="utf-8"?>
<!-- Generator: Adobe Illustrator 16.0.0, SVG Export Plug-In . SVG Version: 6.00 Build 0)  -->
<!DOCTYPE svg PUBLIC "-//W3C//DTD SVG 1.1//EN" "http://www.w3.org/Graphics/SVG/1.1/DTD/svg11.dtd">
<svg version="1.1" id="Layer_1" xmlns="http://www.w3.org/2000/svg" xmlns:xlink="http://www.w3.org/1999/xlink" x="0px" y="0px"
	 width="518px" height="256.584px" viewBox="0 0 518 256.584" enable-background="new 0 0 518 256.584" xml:space="preserve">
<g>
	<path fill="#FFFFFF" d="M412.988,184.347l-0.443-2.207l-0.528-1.851l-0.878-1.675l-0.533-0.796l-0.438-0.618l-0.795-0.88
		l-0.882-0.792l-0.968-0.798l-0.969-0.617l-1.235-0.704l-1.234-0.53l-2.642-0.969l-3.174-0.794l-1.762-0.354l-1.765-0.173
		l-1.94-0.179l-2.025-0.087l-4.231-0.091h-3.524l-3.261,0.264l-2.996,0.266l-2.731,0.616l-2.646,0.617l-2.379,0.798l-2.115,0.883
		l-1.852,1.144l-1.763,1.146l-1.499,1.413l-1.322,1.499l-0.969,1.675l-0.881,1.763l-0.618,2.031l-0.44,2.026l-0.088,2.38h20.096
		l0.087-1.496l0.442-1.145l0.617-0.972l0.88-0.794l1.059-0.617l1.409-0.442l1.587-0.264l1.94-0.091h1.585l1.499,0.264l1.145,0.354
		l1.059,0.617l0.704,0.615l0.618,0.975l0.351,1.057l0.178,1.324l-0.178,0.878l-0.265,0.884l-0.264,0.352l-0.176,0.445l-0.617,0.702
		l-0.97,0.53l-0.97,0.53l-1.144,0.354l-1.325,0.352l-9.604,1.411l-3.172,0.439l-2.821,0.617l-2.468,0.615l-2.029,0.706l-2.818,1.147
		l-1.321,0.617l-1.146,0.797l-1.145,0.702l-0.972,0.885l-1.586,1.848l-1.322,2.028l-0.528,1.06l-0.353,1.235l-0.528,2.557
		l-0.176,1.323v1.502l0.089,1.938l0.264,1.938l0.441,1.769l0.617,1.76l0.792,1.502l0.968,1.499l1.147,1.32l1.496,1.326l1.323,0.878
		l1.499,0.794l1.586,0.705l1.763,0.618l1.762,0.442l2.028,0.351l2.028,0.179l2.203,0.088l1.41-0.088l0.704-0.088h0.792l1.324-0.176
		l1.408-0.091l1.236-0.351l0.617-0.176l0.703-0.091l1.233-0.352l1.233-0.354l1.058-0.526l1.059-0.442l0.44-0.352l0.53-0.264
		l1.059-0.532l0.88-0.703l0.968-0.705l0.354-0.442l0.439-0.352l0.883-0.705h0.089l0.087,2.644l0.177,1.323l0.442,1.411h22.118
		l-0.704-1.147l-0.528-1.235l-0.439-1.408l-0.354-1.499l-0.352-1.675l-0.175-1.854l-0.091-1.941v-2.025v-23.196L412.988,184.347
		L412.988,184.347L412.988,184.347z M384.169,205.512l8.548-2.645v5.2l-0.178,0.969l-0.174,0.973l-0.267,0.881l-0.174,0.439
		l-0.09,0.529l-0.44,0.706l-0.265,0.354l-0.177,0.441l-0.527,0.703l-0.53,0.708l-0.705,0.437l-0.354,0.179l-0.174,0.088
		l-0.088,0.179l-0.793,0.351l-0.706,0.354l-0.884,0.173h-0.264l-0.175,0.091l-0.353,0.176l-1.763,0.179l-1.409-0.179l-1.232-0.267
		l-1.148-0.437l-0.969-0.62l-0.971-0.969l-0.617-0.882l-0.264-0.532l-0.088-0.437l-0.09-0.97l0.09-1.329l0.352-1.054l0.529-0.969
		l0.883-0.709l0.88-0.617l1.235-0.527l1.499-0.53L384.169,205.512L384.169,205.512L384.169,205.512z"/>
	<polygon fill="#FFFFFF" points="512.052,189.371 511.963,187.348 511.697,185.491 511.345,183.729 510.904,182.14 510.286,180.462 
		509.584,179.054 508.702,177.646 507.734,176.411 506.322,174.911 505.528,174.204 504.823,173.677 503.149,172.527 
		501.388,171.734 500.33,171.295 499.358,171.028 497.244,170.59 494.953,170.324 492.573,170.233 490.37,170.233 488.343,170.497 
		486.316,170.763 484.465,171.295 482.614,171.823 481.027,172.614 479.442,173.409 478.031,174.469 474.682,177.379 
		473.273,179.054 472.124,177.027 471.42,176.056 470.716,175.262 469.835,174.378 468.953,173.677 467.984,172.969 
		467.015,172.441 465.867,171.823 464.812,171.379 462.605,170.763 460.229,170.324 457.938,170.233 454.851,170.324 
		451.941,170.763 449.298,171.379 446.917,172.441 444.716,173.586 442.687,175.176 441.719,175.966 440.927,176.937 
		439.428,179.054 439.162,179.054 439.162,171.47 418.274,171.47 418.274,228.351 439.869,228.351 439.869,197.571 439.956,195.104 
		440.31,193.074 440.483,192.105 440.841,191.314 441.19,190.516 441.719,189.9 442.687,188.753 444.012,188.048 445.511,187.518 
		447.271,187.433 448.239,187.433 449.211,187.608 450.005,187.781 450.886,188.139 451.504,188.492 452.208,189.107 
		452.736,189.725 453.267,190.516 453.443,191.049 453.707,191.751 454.059,193.432 454.321,195.282 454.321,196.339 
		454.408,197.571 454.408,228.351 475.917,228.351 475.917,197.571 476.004,195.104 476.354,193.074 476.532,192.105 
		476.885,191.314 477.239,190.516 477.768,189.9 478.735,188.753 480.057,188.048 481.556,187.518 483.406,187.433 484.374,187.433 
		485.346,187.608 486.14,187.781 487.021,188.139 487.639,188.492 488.343,189.107 488.871,189.725 489.401,190.516 
		489.578,191.049 489.84,191.751 490.193,193.432 490.456,195.282 490.456,196.339 490.547,197.571 490.547,228.351 
		512.052,228.351 512.052,189.371 512.052,189.371 	"/>
	<path fill="#FFFFFF" d="M329.437,84.252l1.938-1.323l1.853-1.411l0.351-0.441l0.441-0.351l0.88-0.706l1.501-1.588l1.321-1.764
		l0.527-0.971l0.618-0.882l0.44-1.06l0.528-0.968l0.971-2.118H320.62l-0.704,0.882l-0.439,0.354l-0.353,0.44l-0.971,0.705
		l-1.057,0.618l-1.235,0.441l-1.231,0.352l-1.41,0.178h-0.795l-0.705,0.087l-1.322-0.087l-1.144-0.178l-1.147-0.265l-0.969-0.265
		l-1.851-1.058l-0.881-0.616l-0.706-0.708l-1.32-1.587l-0.53-0.969l-0.353-0.883l-0.44-1.059l-0.266-1.059l-0.265-2.292h41.512
		l-0.174-4.322l-0.178-2.026l-0.177-1.854l-0.353-1.938l-0.352-1.766l-0.44-1.764l-0.354-1.587l-0.617-1.675l-0.618-1.502
		l-0.702-1.498l-0.618-1.322l-0.881-1.413l-0.794-1.232l-1.851-2.205l-1.147-1.146l-1.056-0.971l-1.235-0.969l-1.146-0.795
		l-2.645-1.497l-2.817-1.147l-3.174-0.97l-3.35-0.617l-3.702-0.441l-3.789-0.088l-3.351,0.088l-3.084,0.441l-2.995,0.617
		l-2.733,1.058l-2.731,1.146l-2.382,1.588l-2.377,1.766l-2.026,2.115l-2.029,2.115l-1.676,2.383l-1.408,2.38l-1.146,2.646
		l-0.972,2.646l-0.616,2.911l-0.352,2.907l-0.088,3.178l0.088,3.262l0.442,3.262l0.264,1.412l0.44,1.499l0.439,1.411l0.617,1.5
		l0.529,1.233l0.705,1.321l0.706,1.237l0.88,1.323l1.852,2.291l2.203,2.205l2.203,1.676l2.38,1.588l2.556,1.321l2.82,1.148
		l2.908,0.794l3.086,0.615l3.259,0.354l3.438,0.176l2.468-0.088l2.47-0.266l2.291-0.35l2.291-0.441l2.115-0.617l2.116-0.706
		l1.938-0.884l0.971-0.527L329.437,84.252L329.437,84.252L329.437,84.252z M300.616,52.506l0.44-2.295l0.793-1.94l0.968-1.677
		l1.322-1.232l1.5-1.146l0.794-0.441l0.969-0.265l2.026-0.44l2.379-0.089h0.971l0.969,0.176l0.883,0.179l0.969,0.35l0.792,0.355
		l0.794,0.528l0.705,0.529l0.794,0.706l1.058,1.32l0.879,1.677l0.529,1.675l0.178,2.031H300.616L300.616,52.506L300.616,52.506z"/>
	<path fill="#FFFFFF" d="M209.661,13.613h-76.767v152.034h67.689l2.291-0.088h2.379l2.292-0.176l0.529-0.091h0.615h1.234
		l1.058-0.171l0.529-0.09h0.616l2.292-0.175l4.318-0.53l0.44-0.179l0.53-0.085l1.057-0.177l2.114-0.354l4.055-0.882l3.878-1.059
		l0.883-0.352l0.439-0.179l0.53-0.088l1.937-0.529l3.526-1.41l0.352-0.265l0.442-0.176l0.881-0.354l1.763-0.704l1.587-0.881
		l0.351-0.266l0.442-0.178l0.881-0.352l1.587-0.973l1.675-0.878l2.995-2.032l1.411-1.144l1.498-1.061l1.322-1.233l1.412-1.145
		l2.645-2.382l1.054-1.324l1.147-1.233l2.115-2.646l2.026-2.823l0.881-1.499l0.971-1.41l0.794-1.588l0.881-1.498l1.497-3.175
		l1.41-3.263l1.322-3.352l1.058-3.616l0.176-0.972l0.266-0.881l0.528-1.764l0.353-1.94l0.176-0.971l0.264-0.88l0.705-3.881
		l0.441-4.057l0.175-2.117l0.091-1.057l0.176-0.971v-1.146l0.088-1.058l0.176-2.118v-2.203l0.088-2.117l-0.088-4.057l-0.176-3.881
		l-0.354-3.881l-0.35-3.703l-0.617-3.703l-0.618-3.439l-0.792-3.439l-0.881-3.264l-1.059-3.261l-1.146-3.089l-1.232-3.086
		l-1.323-2.911l-1.499-2.91l-1.584-2.644l-1.763-2.646l-1.763-2.471l-2.383-2.911l-2.465-2.646l-2.556-2.556l-2.733-2.205
		l-2.907-2.205l-2.998-1.853l-1.585-0.97l-1.498-0.794l-3.174-1.5l-3.438-1.498l-3.526-1.146l-3.699-0.97l-3.792-0.793l-3.967-0.619
		l-4.052-0.439l-4.232-0.266L209.661,13.613L209.661,13.613L209.661,13.613z M179.783,52.506h14.807h2.644l2.554,0.176l2.469,0.265
		l2.469,0.44l2.202,0.44l2.203,0.618l2.115,0.705l2.027,0.971l1.851,0.881l1.763,1.058l1.674,1.146l1.673,1.413l1.5,1.322
		l1.411,1.586l1.322,1.676l1.319,1.852l1.323,2.204l1.145,2.47l0.97,2.47l0.795,2.735l0.615,2.731l0.442,2.911l0.265,3l0.177,3.172
		l-0.091,1.764l-0.086,0.883v0.971l-0.178,1.674l-0.086,1.766l-0.265,1.588l-0.177,1.676l-0.353,1.5l-0.262,1.584l-0.53,1.411
		l-0.265,0.706l-0.176,0.795l-0.969,2.821l-0.618,1.235l-0.529,1.322l-0.706,1.236l-0.352,0.618L225.612,113l-1.144,1.589
		l-0.618,0.705l-0.528,0.792l-1.323,1.413l-1.233,1.411l-0.794,0.529l-0.705,0.618l-0.793,0.527l-0.706,0.618l-1.586,0.969
		l-1.585,0.971l-1.851,0.704l-1.852,0.708l-1.938,0.616l-1.939,0.529l-2.203,0.352l-2.114,0.266l-2.294,0.176l-2.291,0.088h-18.332
		V52.506L179.783,52.506L179.783,52.506z"/>
	<polygon fill="#FFFFFF" points="218.474,178.787 218.651,168.827 185.335,168.827 185.247,190.516 185.247,193.868 185.511,197.22 
		185.953,200.394 186.569,203.57 187.363,206.48 188.332,209.391 189.477,212.122 190.799,214.856 192.209,217.325 193.886,219.793 
		195.734,222.176 197.762,224.472 199.966,226.585 202.346,228.614 204.901,230.556 207.633,232.405 210.367,233.995 
		213.45,235.579 216.711,237.081 220.148,238.492 223.674,239.73 227.464,240.872 231.429,241.93 235.572,242.901 239.715,243.697 
		244.209,244.4 248.879,245.016 253.726,245.633 258.664,245.99 263.862,246.342 269.24,246.518 274.791,246.692 278.845,246.605 
		282.813,246.433 284.664,246.251 286.604,246.166 288.454,245.99 290.392,245.899 293.917,245.46 297.442,245.016 300.791,244.4 
		302.38,244.049 303.173,243.87 304.053,243.782 304.759,243.517 305.552,243.344 307.138,242.989 310.134,242.108 312.955,241.139 
		315.774,240.167 317.009,239.549 318.33,239.022 319.565,238.404 320.888,237.875 322.031,237.172 323.267,236.551 
		324.413,235.846 325.646,235.23 326.968,234.171 328.379,233.202 329.702,232.145 331.11,231.173 332.346,230.028 333.665,228.969 
		336.045,226.852 338.074,224.56 340.099,222.267 340.979,221.028 341.864,219.884 342.656,218.651 343.537,217.506 
		343.801,216.798 344.153,216.18 344.859,214.944 345.125,214.242 345.477,213.624 346.184,212.389 346.621,210.975 347.15,209.654 
		348.121,207.008 348.738,204.186 349.266,201.368 349.266,200.572 349.356,199.867 349.53,198.453 349.53,197.659 349.619,196.954 
		349.794,195.548 349.794,92.807 291.096,92.807 291.01,181.434 291.01,182.933 291.01,184.432 290.921,185.849 290.833,186.549 
		290.833,187.348 290.658,187.963 290.567,188.665 290.392,189.283 290.303,189.991 289.95,191.224 289.597,192.548 289.07,193.604 
		288.54,194.749 287.924,195.809 287.309,196.866 286.514,197.75 285.809,198.634 284.928,199.428 284.136,200.306 283.693,200.484 
		283.341,200.751 282.637,201.278 281.227,202.335 279.729,203.219 278.317,204.101 276.73,204.803 275.938,205.157 275.233,205.6 
		272.062,206.92 268.71,207.804 266.949,208.155 265.273,208.507 263.424,208.686 261.66,208.951 257.959,209.124 254.08,208.863 
		250.469,208.507 246.941,207.892 243.681,207.186 240.42,206.22 237.424,205.069 234.512,203.658 231.781,202.156 230.107,201.012 
		228.611,199.954 227.111,198.719 225.878,197.571 224.643,196.248 223.586,194.928 222.529,193.517 221.735,192.193 
		220.853,190.609 220.235,189.107 219.62,187.518 219.267,185.931 218.828,184.168 218.651,182.405 218.474,180.553 
		218.474,178.787 218.474,178.787 	"/>
</g>
<polygon fill="#FFFFFF" points="338.646,30.425 363.033,30.425 371.97,65.022 381.905,30.425 404.25,30.425 384.784,87.251 
	358.904,87.251 "/>
<g>
	<rect x="84.869" y="237.019" fill="#FFFFFF" width="1.136" height="8.118"/>
	<polygon fill="#FFFFFF" points="89.954,238.008 87.168,238.008 87.168,237.019 93.876,237.019 93.876,238.008 91.09,238.008 
		91.09,245.137 89.954,245.137 	"/>
	<path fill="#FFFFFF" d="M101.566,236.883c1.958,0,2.954,1.071,2.954,1.071l-0.562,0.85c0,0-0.944-0.884-2.349-0.884
		c-1.818,0-3.004,1.383-3.004,3.105c0,1.734,1.207,3.205,3.014,3.205c1.535,0,2.511-1.057,2.511-1.057l0.608,0.815
		c0,0-1.117,1.29-3.154,1.29c-2.435,0-4.151-1.862-4.151-4.245C97.441,238.68,99.207,236.883,101.566,236.883"/>
	<path fill="#FFFFFF" d="M109.86,236.883c2.346,0,4.164,1.808,4.164,4.143c0,2.392-1.821,4.254-4.164,4.254
		c-2.346,0-4.174-1.862-4.174-4.254C105.683,238.69,107.511,236.883,109.86,236.883 M109.86,244.23c1.655,0,2.991-1.377,2.991-3.205
		c0-1.773-1.336-3.105-2.991-3.105s-3.002,1.332-3.002,3.105C106.857,242.854,108.205,244.23,109.86,244.23"/>
	<path fill="#FFFFFF" d="M115.675,237.019h1.132l3.611,5.276c0.299,0.442,0.677,1.173,0.677,1.173h0.026c0,0-0.08-0.725-0.08-1.173
		v-5.276h1.139v8.118h-1.114l-3.624-5.268c-0.298-0.447-0.677-1.185-0.677-1.185h-0.028c0,0,0.083,0.723,0.083,1.185v5.268h-1.146
		V237.019z"/>
	<path fill="#FFFFFF" d="M124.408,243.347c0,0,0.862,0.872,2.072,0.872c0.759,0,1.397-0.425,1.397-1.195
		c0-1.757-3.928-1.377-3.928-3.874c0-1.267,1.092-2.267,2.622-2.267c1.504,0,2.301,0.816,2.301,0.816l-0.524,0.943
		c0,0-0.742-0.709-1.776-0.709c-0.859,0-1.472,0.542-1.472,1.182c0,1.681,3.934,1.236,3.934,3.865c0,1.25-0.966,2.287-2.582,2.287
		c-1.724,0-2.69-1.071-2.69-1.071L124.408,243.347z"/>
	<path fill="#FFFFFF" d="M130.549,237.019h1.142v5.248c0,1.238,0.802,1.964,2.049,1.964c1.25,0,2.069-0.723,2.069-1.986v-5.22h1.139
		v5.248c0,1.802-1.303,3.009-3.193,3.009c-1.901,0-3.199-1.207-3.199-3.009v-5.248L130.549,237.019L130.549,237.019z"/>
	<polygon fill="#FFFFFF" points="139.039,237.019 140.175,237.019 140.175,244.154 143.811,244.154 143.811,245.137 
		139.039,245.137 	"/>
	<polygon fill="#FFFFFF" points="146.157,238.008 143.374,238.008 143.374,237.019 150.079,237.019 150.079,238.008 
		147.296,238.008 147.296,245.137 146.157,245.137 	"/>
	<rect x="151.238" y="237.019" fill="#FFFFFF" width="1.139" height="8.118"/>
	<path fill="#FFFFFF" d="M154.584,237.019h1.128l3.613,5.276c0.298,0.442,0.68,1.173,0.68,1.173h0.028c0,0-0.082-0.725-0.082-1.173
		v-5.276h1.136v8.118h-1.114l-3.624-5.268c-0.298-0.447-0.68-1.185-0.68-1.185h-0.022c0,0,0.076,0.723,0.076,1.185v5.268h-1.139
		V237.019z"/>
	<path fill="#FFFFFF" d="M166.891,236.883c1.944,0,2.956,0.975,2.956,0.975l-0.575,0.854c0,0-0.91-0.791-2.284-0.791
		c-1.907,0-3.061,1.392-3.061,3.125c0,1.894,1.289,3.186,2.992,3.186c1.403,0,2.298-1.012,2.298-1.012v-1.17h-1.321v-0.992h2.358
		v4.078h-1v-0.502c0-0.179,0.006-0.346,0.006-0.346h-0.023c0,0-0.881,0.992-2.496,0.992c-2.182,0-3.993-1.729-3.993-4.208
		C162.751,238.725,164.522,236.883,166.891,236.883"/>
	<path fill="#FFFFFF" d="M24.13,230.264c-5.724,0-11.74-1.264-15.973-3.194l1.856-8.619c4.531,1.408,9.139,2.374,14.265,2.374
		c5.724,0,6.838-1.11,6.838-5.273c0-4.457-0.221-4.976-8.323-6.764c-11.961-2.599-13.746-4.976-13.746-15.673
		c0-9.881,3.493-13.822,17.093-13.822c4.304,0,9.51,0.447,15.004,1.635l-1.113,9.362c-5.646-0.967-9.288-1.411-13.743-1.411
		c-4.976,0-6.095,0.89-6.095,4.531c0,4.749,0.224,4.825,8.026,6.688c13.373,3.193,14.042,5.794,14.042,15.525
		C42.262,225.432,39.065,230.264,24.13,230.264"/>
	<path fill="#FFFFFF" d="M95.425,230.264c-6.914,0-10.921-2.602-10.921-9.289v-19.022H72.79l6.809-8.617h4.905v-8.696l10.696-1.484
		v10.181h8.25l-0.592,8.614H95.2v17.535c0,1.487,0.894,2.006,2.231,2.006c1.187,0,2.897-0.15,4.457-0.669l1.264,8.102
		C100.775,229.742,97.879,230.264,95.425,230.264"/>
	<path fill="#FFFFFF" d="M129.461,229.518l-0.745-2.295c-4.161,2.295-7.881,3.041-10.331,3.041c-6.686,0-9.435-4.826-9.435-10.995
		c0-7.282,3.344-10.179,10.773-10.179h7.799v-2.751c0-3.712-0.661-4.979-6.388-4.979c-3.196,0-6.393,0.374-9.807,1.045l-1.414-8.027
		c3.42-1.037,8.847-1.779,13.004-1.779c12.56,0,15.302,3.788,15.302,13.816v23.111h-8.759V229.518L129.461,229.518z
		 M127.523,216.515h-5.124c-2.304,0-3.194,0.595-3.194,2.601c0,2.004,0.816,2.82,2.899,2.82c2.23,0,3.787-0.521,5.424-1.264
		L127.523,216.515L127.523,216.515z"/>
	<path fill="#FFFFFF" d="M155.613,215.698c0,3.718,1.562,5.424,5.869,5.424c2.749,0,4.828-0.298,7.438-0.896l1.335,8.92
		c-3.641,0.816-6.243,1.117-8.773,1.117c-11.737,0-16.568-4.384-16.568-14.713v-8.249c0-10.328,4.828-14.709,16.568-14.709
		c2.53,0,5.129,0.298,8.773,1.113l-1.335,8.918c-2.233-0.519-5.35-0.893-7.438-0.893c-4.302,0-5.869,1.709-5.869,5.424V215.698z"/>
	<path fill="#FFFFFF" d="M60.061,241.113c-1.949,1.278-4.654,1.919-8.115,1.919c-1.046,0-2.077-0.037-3.103-0.111
		c-1.017-0.064-2.056-0.152-3.102-0.252v-8.328c0.948,0.094,1.923,0.185,2.922,0.283c1.001,0.097,1.988,0.113,2.991,0.068
		c1.329-0.139,2.315-0.66,2.957-1.562c0.642-0.901,0.96-1.904,0.96-2.989c0-0.808-0.142-1.57-0.426-2.281L42.26,193.335h10.748
		l8.334,25.205h0.14l8.046-25.205h10.465l-15.375,41.366C63.524,237.69,62.005,239.83,60.061,241.113"/>
</g>
<g>
	<rect x="243.583" y="1094.065" fill="#FFFFFF" width="3.601" height="25.728"/>
	<polygon fill="#FFFFFF" points="259.697,1097.2 250.87,1097.2 250.87,1094.065 272.13,1094.065 272.13,1097.2 263.298,1097.2 
		263.298,1119.793 259.697,1119.793 	"/>
	<path fill="#FFFFFF" d="M296.496,1093.635c6.205,0,9.362,3.39,9.362,3.39l-1.783,2.699c0,0-2.99-2.802-7.445-2.802
		c-5.761,0-9.517,4.383-9.517,9.837c0,5.501,3.823,10.162,9.549,10.162c4.862,0,7.956-3.351,7.956-3.351l1.926,2.582
		c0,0-3.537,4.09-9.994,4.09c-7.714,0-13.155-5.899-13.155-13.453C283.426,1099.329,289.02,1093.635,296.496,1093.635"/>
	<path fill="#FFFFFF" d="M322.78,1093.635c7.435,0,13.195,5.725,13.195,13.124c0,7.584-5.77,13.483-13.195,13.483
		c-7.436,0-13.228-5.899-13.228-13.483C309.543,1099.359,315.336,1093.635,322.78,1093.635 M322.78,1116.921
		c5.244,0,9.477-4.37,9.477-10.162c0-5.62-4.232-9.837-9.477-9.837c-5.245,0-9.515,4.217-9.515,9.837
		C313.266,1112.551,317.535,1116.921,322.78,1116.921"/>
	<path fill="#FFFFFF" d="M341.206,1094.065h3.588l11.445,16.717c0.947,1.401,2.146,3.722,2.146,3.722h0.08
		c0,0-0.25-2.298-0.25-3.722v-16.717h3.608v25.728h-3.528l-11.484-16.692c-0.943-1.423-2.147-3.76-2.147-3.76h-0.089
		c0,0,0.265,2.294,0.265,3.76v16.692h-3.633V1094.065z"/>
	<path fill="#FFFFFF" d="M368.882,1114.119c0,0,2.729,2.766,6.564,2.766c2.407,0,4.428-1.349,4.428-3.79
		c0-5.567-12.446-4.364-12.446-12.28c0-4.009,3.461-7.18,8.306-7.18c4.769,0,7.292,2.588,7.292,2.588l-1.662,2.989
		c0,0-2.353-2.245-5.63-2.245c-2.72,0-4.66,1.715-4.66,3.745c0,5.325,12.463,3.914,12.463,12.248c0,3.961-3.062,7.246-8.18,7.246
		c-5.46,0-8.521-3.398-8.521-3.398L368.882,1114.119z"/>
	<path fill="#FFFFFF" d="M388.341,1094.065h3.62v16.631c0,3.92,2.54,6.225,6.491,6.225c3.96,0,6.556-2.292,6.556-6.296v-16.545h3.61
		v16.634c0,5.711-4.131,9.537-10.121,9.537c-6.025,0-10.138-3.826-10.138-9.537v-16.634L388.341,1094.065L388.341,1094.065z"/>
	<polygon fill="#FFFFFF" points="415.245,1094.065 418.845,1094.065 418.845,1116.673 430.367,1116.673 430.367,1119.793 
		415.245,1119.793 	"/>
	<polygon fill="#FFFFFF" points="437.801,1097.2 428.983,1097.2 428.983,1094.065 450.23,1094.065 450.23,1097.2 441.411,1097.2 
		441.411,1119.793 437.801,1119.793 	"/>
	<rect x="453.903" y="1094.065" fill="#FFFFFF" width="3.609" height="25.728"/>
	<path fill="#FFFFFF" d="M464.508,1094.065h3.574l11.45,16.717c0.942,1.401,2.154,3.722,2.154,3.722h0.089
		c0,0-0.26-2.298-0.26-3.722v-16.717h3.601v25.728h-3.528l-11.485-16.692c-0.942-1.423-2.155-3.76-2.155-3.76h-0.071
		c0,0,0.241,2.294,0.241,3.76v16.692h-3.609V1094.065z"/>
	<path fill="#FFFFFF" d="M503.508,1093.635c6.159,0,9.366,3.09,9.366,3.09l-1.823,2.703c0,0-2.883-2.506-7.239-2.506
		c-6.043,0-9.697,4.404-9.697,9.903c0,5.999,4.087,10.096,9.482,10.096c4.445,0,7.282-3.207,7.282-3.207v-3.707h-4.185v-3.145h7.472
		v12.923h-3.171v-1.591c0-0.566,0.019-1.099,0.019-1.099h-0.071c0,0-2.792,3.146-7.911,3.146c-6.914,0-12.652-5.479-12.652-13.336
		C490.388,1099.472,496,1093.635,503.508,1093.635"/>
	<path fill="#FFFFFF" d="M51.106,1072.654c-18.139,0-37.204-4.001-50.62-10.117l5.882-27.316c14.359,4.459,28.96,7.525,45.204,7.525
		c18.139,0,21.668-3.52,21.668-16.715c0-14.126-0.7-15.77-26.375-21.43c-37.903-8.235-43.56-15.77-43.56-49.673
		c0-31.312,11.066-43.798,54.166-43.798c13.641,0,30.137,1.413,47.548,5.18l-3.529,29.666c-17.892-3.062-29.431-4.473-43.552-4.473
		c-15.768,0-19.315,2.824-19.315,14.359c0,15.054,0.709,15.292,25.435,21.191c42.38,10.125,44.499,18.369,44.499,49.206
		C108.563,1057.349,98.434,1072.654,51.106,1072.654"/>
	<path fill="#FFFFFF" d="M277.037,1072.654c-21.912,0-34.607-8.24-34.607-29.433v-60.28h-37.124l21.579-27.308h15.545v-27.559
		l33.894-4.706v32.26h26.145l-1.878,27.304h-24.267v55.566c0,4.715,2.833,6.357,7.071,6.357c3.763,0,9.182-0.476,14.125-2.118
		l4.005,25.669C293.991,1071.005,284.812,1072.654,277.037,1072.654"/>
	<path fill="#FFFFFF" d="M384.894,1070.296l-2.362-7.277c-13.182,7.277-24.972,9.636-32.735,9.636
		c-21.188,0-29.898-15.294-29.898-34.843c0-23.077,10.597-32.25,34.141-32.25h24.712v-8.72c0-11.764-2.092-15.777-20.239-15.777
		c-10.129,0-20.259,1.186-31.08,3.309l-4.48-25.436c10.839-3.285,28.034-5.643,41.209-5.643c39.798,0,48.49,12.006,48.49,43.789
		v73.233h-27.756V1070.296L384.894,1070.296z M378.75,1029.089h-16.235c-7.3,0-10.119,1.885-10.119,8.243
		c0,6.348,2.586,8.936,9.187,8.936c7.067,0,11.996-1.653,17.187-4.01L378.75,1029.089L378.75,1029.089z"/>
	<path fill="#FFFFFF" d="M467.768,1026.497c0,11.782,4.948,17.188,18.598,17.188c8.709,0,15.301-0.943,23.571-2.834l4.229,28.269
		c-11.539,2.587-19.782,3.534-27.801,3.534c-37.195,0-52.506-13.887-52.506-46.619v-26.141c0-32.73,15.302-46.617,52.506-46.617
		c8.019,0,16.252,0.947,27.801,3.533l-4.229,28.259c-7.076-1.643-16.954-2.828-23.571-2.828c-13.632,0-18.598,5.409-18.598,17.187
		V1026.497z"/>
	<path fill="#FFFFFF" d="M164.969,1107.037c-6.178,4.056-14.749,6.08-25.718,6.08c-3.313,0-6.582-0.113-9.833-0.347
		c-3.223-0.206-6.515-0.484-9.829-0.799v-26.391c3.005,0.295,6.094,0.583,9.259,0.897c3.174,0.3,6.299,0.354,9.478,0.212
		c4.212-0.436,7.337-2.089,9.371-4.945c2.034-2.854,3.044-6.033,3.044-9.474c0-2.562-0.449-4.976-1.352-7.229l-40.831-109.409
		h34.061l26.41,79.876h0.444l25.498-79.876h33.163l-48.725,131.087C175.943,1096.194,171.129,1102.97,164.969,1107.037"/>
</g>
</svg>
