<?xml version="1.0" encoding="utf-8"?>
<!-- Generator: Adobe Illustrator 16.0.0, SVG Export Plug-In . SVG Version: 6.00 Build 0)  -->
<!DOCTYPE svg PUBLIC "-//W3C//DTD SVG 1.1//EN" "http://www.w3.org/Graphics/SVG/1.1/DTD/svg11.dtd">
<svg version="1.1" id="Layer_1" xmlns="http://www.w3.org/2000/svg" xmlns:xlink="http://www.w3.org/1999/xlink" x="0px" y="0px"
	 width="361.062px" height="177.876px" viewBox="0 0 361.062 177.876" enable-background="new 0 0 361.062 177.876"
	 xml:space="preserve">
<g>
	<path fill="#FFFFFF" d="M285.431,125.277l-0.306-1.521l-0.364-1.275l-0.605-1.154l-0.367-0.548l-0.302-0.426l-0.548-0.606
		l-0.607-0.547l-0.667-0.549l-0.668-0.426l-0.852-0.486l-0.851-0.364l-1.821-0.669l-2.188-0.546l-1.214-0.244l-1.217-0.119
		l-1.337-0.124l-1.396-0.059l-2.916-0.062h-2.43l-2.247,0.182l-2.065,0.183l-1.883,0.425l-1.823,0.426l-1.64,0.549l-1.458,0.609
		l-1.276,0.787l-1.215,0.791l-1.033,0.973l-0.911,1.033l-0.668,1.155l-0.607,1.215l-0.426,1.399l-0.304,1.396l-0.061,1.641h13.852
		l0.06-1.031l0.305-0.789l0.426-0.67l0.606-0.547l0.729-0.426l0.972-0.305l1.094-0.182l1.337-0.062h1.093l1.033,0.183l0.789,0.243
		l0.729,0.426l0.485,0.424l0.426,0.672l0.242,0.729l0.122,0.911l-0.122,0.606l-0.183,0.609l-0.182,0.241l-0.121,0.307l-0.426,0.485
		l-0.668,0.364l-0.669,0.365l-0.788,0.244l-0.913,0.242l-6.62,0.973l-2.187,0.304l-1.944,0.426l-1.701,0.424l-1.398,0.485
		l-1.942,0.792l-0.911,0.426l-0.79,0.548l-0.789,0.485l-0.67,0.609l-1.093,1.273l-0.911,1.398l-0.364,0.729l-0.243,0.852
		l-0.364,1.763l-0.121,0.912v1.035l0.062,1.335l0.182,1.337l0.304,1.218l0.426,1.213l0.546,1.035l0.667,1.033l0.791,0.911
		l1.031,0.914l0.912,0.605l1.033,0.547l1.093,0.486l1.215,0.426l1.215,0.304l1.397,0.243l1.398,0.123l1.519,0.06l0.972-0.06
		l0.485-0.061h0.546l0.913-0.122l0.971-0.062l0.852-0.242l0.426-0.121l0.484-0.062l0.851-0.242l0.85-0.244l0.729-0.363l0.729-0.306
		l0.304-0.241l0.365-0.183l0.729-0.366l0.606-0.485l0.667-0.485l0.244-0.306l0.303-0.242l0.608-0.485h0.062l0.06,1.822l0.122,0.912
		l0.305,0.973h15.245l-0.485-0.791l-0.364-0.852l-0.303-0.972l-0.244-1.033l-0.242-1.154l-0.121-1.277l-0.062-1.338v-1.396v-15.988
		L285.431,125.277L285.431,125.277L285.431,125.277z M265.566,139.865l5.892-1.822v3.585l-0.122,0.668l-0.12,0.669l-0.184,0.607
		l-0.12,0.304l-0.062,0.364l-0.304,0.487l-0.183,0.244l-0.122,0.304l-0.363,0.485l-0.365,0.488l-0.486,0.3l-0.243,0.124l-0.12,0.06
		l-0.061,0.124l-0.547,0.242l-0.486,0.243l-0.609,0.12h-0.182l-0.12,0.062l-0.243,0.121l-1.215,0.122l-0.972-0.122l-0.85-0.184
		l-0.791-0.302l-0.668-0.428l-0.669-0.667l-0.426-0.608l-0.182-0.367l-0.061-0.3l-0.062-0.669l0.062-0.915l0.242-0.727l0.365-0.669
		l0.608-0.488l0.606-0.426l0.852-0.363l1.033-0.364L265.566,139.865L265.566,139.865L265.566,139.865z"/>
	<polygon fill="#FFFFFF" points="353.711,128.74 353.649,127.346 353.467,126.066 353.224,124.852 352.92,123.756 352.494,122.601 
		352.01,121.63 351.402,120.658 350.735,119.809 349.762,118.773 349.215,118.287 348.729,117.924 347.575,117.131 346.36,116.585 
		345.632,116.281 344.962,116.098 343.505,115.796 341.926,115.613 340.285,115.551 338.767,115.551 337.369,115.732 
		335.973,115.915 334.696,116.281 333.421,116.646 332.327,117.191 331.234,117.738 330.262,118.47 327.953,120.475 326.982,121.63 
		326.19,120.232 325.705,119.562 325.22,119.016 324.612,118.407 324.005,117.924 323.337,117.436 322.669,117.072 321.878,116.646 
		321.15,116.34 319.63,115.915 317.991,115.613 316.412,115.551 314.284,115.613 312.279,115.915 310.457,116.34 308.816,117.072 
		307.299,117.861 305.9,118.957 305.233,119.502 304.688,120.171 303.654,121.63 303.471,121.63 303.471,116.402 289.074,116.402 
		289.074,155.608 303.958,155.608 303.958,134.393 304.019,132.691 304.262,131.293 304.382,130.625 304.628,130.08 304.869,129.53 
		305.233,129.106 305.9,128.314 306.813,127.829 307.847,127.463 309.061,127.405 309.728,127.405 310.397,127.525 310.944,127.646 
		311.552,127.891 311.978,128.135 312.463,128.559 312.827,128.984 313.192,129.53 313.314,129.896 313.496,130.382 
		313.738,131.539 313.92,132.814 313.92,133.543 313.979,134.393 313.979,155.608 328.805,155.608 328.805,134.393 328.864,132.691 
		329.106,131.293 329.229,130.625 329.472,130.08 329.716,129.53 330.08,129.106 330.747,128.314 331.658,127.829 332.691,127.463 
		333.967,127.405 334.634,127.405 335.304,127.525 335.851,127.646 336.458,127.891 336.884,128.135 337.369,128.559 
		337.733,128.984 338.099,129.53 338.221,129.896 338.401,130.382 338.645,131.539 338.826,132.814 338.826,133.543 
		338.889,134.393 338.889,155.608 353.711,155.608 353.711,128.74 353.711,128.74 	"/>
	<path fill="#FFFFFF" d="M227.842,56.286l1.335-0.912l1.277-0.973l0.241-0.304L231,53.856l0.606-0.487l1.034-1.094l0.911-1.215
		l0.363-0.669l0.426-0.608l0.304-0.73l0.364-0.667l0.669-1.459h-13.913l-0.485,0.607l-0.303,0.244l-0.243,0.304l-0.669,0.486
		l-0.729,0.426l-0.852,0.305l-0.849,0.243l-0.972,0.122h-0.548l-0.486,0.06l-0.911-0.06l-0.788-0.122l-0.791-0.183l-0.668-0.182
		l-1.275-0.729l-0.607-0.425l-0.486-0.488l-0.91-1.094l-0.365-0.667l-0.243-0.608l-0.304-0.729l-0.183-0.729l-0.183-1.58h28.612
		l-0.12-2.979l-0.122-1.397l-0.122-1.277l-0.243-1.336l-0.242-1.216l-0.304-1.216l-0.243-1.094l-0.426-1.155l-0.426-1.035
		l-0.484-1.033l-0.426-0.911l-0.607-0.974l-0.547-0.85l-1.275-1.52l-0.791-0.79l-0.728-0.669l-0.852-0.668l-0.79-0.548l-1.822-1.032
		l-1.942-0.791l-2.188-0.668l-2.309-0.426l-2.552-0.304l-2.611-0.061l-2.31,0.061l-2.126,0.304l-2.064,0.426l-1.884,0.729
		l-1.883,0.79l-1.642,1.094l-1.639,1.216l-1.396,1.458l-1.398,1.458l-1.155,1.642l-0.971,1.641l-0.789,1.823l-0.67,1.824
		l-0.425,2.007l-0.242,2.004l-0.061,2.189l0.061,2.249l0.305,2.248l0.182,0.974l0.304,1.033l0.303,0.973l0.426,1.034l0.364,0.85
		l0.486,0.911l0.486,0.853l0.606,0.912l1.276,1.58l1.519,1.52l1.519,1.155l1.641,1.094l1.762,0.911l1.943,0.792l2.005,0.547
		l2.127,0.424l2.246,0.244l2.369,0.121l1.701-0.06l1.702-0.183l1.579-0.242l1.579-0.304l1.458-0.425l1.459-0.487l1.335-0.609
		l0.669-0.364L227.842,56.286L227.842,56.286L227.842,56.286z M207.977,34.405l0.304-1.581l0.547-1.338l0.667-1.155l0.911-0.85
		l1.034-0.791l0.547-0.305l0.668-0.182l1.396-0.304l1.64-0.061h0.669l0.668,0.121l0.608,0.123l0.668,0.242l0.546,0.244l0.547,0.365
		l0.486,0.365l0.547,0.486l0.729,0.911l0.605,1.155l0.365,1.155l0.122,1.399H207.977L207.977,34.405L207.977,34.405z"/>
	<path fill="#FFFFFF" d="M145.285,7.598H92.373V112.39h46.656l1.579-0.062h1.64l1.58-0.12l0.365-0.062h0.424h0.851l0.729-0.118
		l0.365-0.062h0.424l1.58-0.122l2.977-0.365l0.304-0.122l0.364-0.06l0.729-0.121l1.458-0.243l2.795-0.608l2.673-0.73l0.608-0.242
		l0.304-0.122l0.365-0.062l1.335-0.364l2.431-0.972l0.242-0.184l0.305-0.121l0.607-0.244l1.215-0.484l1.093-0.607l0.243-0.184
		l0.304-0.122l0.607-0.243l1.094-0.67l1.154-0.605l2.065-1.399l0.973-0.789l1.032-0.731l0.911-0.85l0.973-0.789l1.823-1.642
		l0.727-0.913l0.791-0.85l1.458-1.824l1.396-1.945l0.607-1.033l0.669-0.972l0.547-1.095l0.607-1.033l1.032-2.188l0.972-2.249
		l0.911-2.31l0.729-2.493l0.121-0.669l0.183-0.607l0.364-1.216l0.243-1.337l0.121-0.669l0.182-0.606l0.486-2.674l0.304-2.796
		l0.121-1.459l0.062-0.729l0.121-0.669v-0.79l0.061-0.729l0.121-1.46v-1.519l0.061-1.458l-0.061-2.796l-0.121-2.675l-0.244-2.674
		l-0.241-2.552l-0.426-2.553l-0.426-2.371l-0.546-2.37l-0.607-2.25l-0.729-2.248l-0.79-2.129l-0.85-2.127l-0.912-2.007l-1.033-2.006
		l-1.092-1.822l-1.215-1.823l-1.215-1.703l-1.643-2.006l-1.699-1.824l-1.762-1.762l-1.884-1.519l-2.004-1.52l-2.066-1.277
		l-1.093-0.668l-1.032-0.547l-2.188-1.034l-2.369-1.032l-2.431-0.791l-2.55-0.668l-2.613-0.546l-2.734-0.427l-2.794-0.303
		l-2.917-0.183L145.285,7.598L145.285,7.598L145.285,7.598z M124.691,34.405h10.206h1.822l1.761,0.121l1.702,0.183l1.702,0.304
		l1.518,0.303l1.519,0.426l1.458,0.485l1.397,0.669l1.276,0.607l1.214,0.729l1.155,0.791l1.153,0.974l1.034,0.911l0.972,1.094
		l0.912,1.155l0.91,1.276l0.912,1.519l0.79,1.703l0.668,1.702l0.548,1.885l0.424,1.883l0.304,2.007l0.183,2.067l0.122,2.187
		l-0.062,1.215l-0.06,0.609v0.668l-0.123,1.154l-0.06,1.216l-0.182,1.094l-0.122,1.155l-0.244,1.034l-0.181,1.092l-0.365,0.973
		l-0.183,0.487l-0.121,0.548l-0.668,1.944l-0.426,0.852l-0.364,0.911l-0.486,0.853l-0.243,0.426l-0.183,0.484l-0.788,1.095
		l-0.426,0.486l-0.365,0.546l-0.911,0.974l-0.851,0.973l-0.547,0.365l-0.485,0.426l-0.547,0.364l-0.486,0.426l-1.094,0.668
		l-1.093,0.669l-1.275,0.485l-1.276,0.488l-1.336,0.425l-1.337,0.365l-1.519,0.243l-1.457,0.183l-1.581,0.121l-1.579,0.061h-12.636
		V34.405L124.691,34.405L124.691,34.405z"/>
	<polygon fill="#FFFFFF" points="151.359,121.445 151.481,114.58 128.518,114.58 128.458,129.53 128.458,131.84 128.639,134.151 
		128.944,136.338 129.369,138.528 129.916,140.533 130.584,142.539 131.373,144.422 132.284,146.307 133.256,148.008 
		134.412,149.71 135.686,151.352 137.083,152.935 138.603,154.392 140.243,155.79 142.004,157.127 143.887,158.402 145.771,159.498 
		147.896,160.591 150.144,161.625 152.514,162.598 154.943,163.451 157.556,164.239 160.289,164.968 163.145,165.638 166,166.186 
		169.097,166.671 172.317,167.095 175.657,167.521 179.061,167.767 182.644,168.008 186.351,168.13 190.177,168.25 192.971,168.19 
		195.706,168.07 196.981,167.946 198.318,167.887 199.594,167.767 200.93,167.704 203.359,167.4 205.789,167.095 208.098,166.671 
		209.192,166.428 209.739,166.306 210.346,166.245 210.832,166.062 211.379,165.941 212.472,165.698 214.537,165.09 
		216.481,164.423 218.425,163.753 219.275,163.327 220.187,162.964 221.038,162.538 221.949,162.172 222.737,161.688 
		223.589,161.261 224.379,160.773 225.229,160.35 226.14,159.62 227.112,158.952 228.024,158.223 228.995,157.553 229.847,156.764 
		230.756,156.034 232.396,154.575 233.795,152.994 235.19,151.414 235.798,150.562 236.407,149.772 236.953,148.923 
		237.561,148.134 237.742,147.646 237.985,147.22 238.472,146.368 238.655,145.883 238.897,145.457 239.385,144.605 
		239.687,143.632 240.051,142.722 240.72,140.896 241.146,138.952 241.509,137.01 241.509,136.461 241.571,135.976 241.691,135 
		241.691,134.454 241.753,133.967 241.873,132.998 241.873,62.183 201.415,62.183 201.355,123.27 201.355,124.303 201.355,125.337 
		201.294,126.312 201.233,126.796 201.233,127.346 201.113,127.77 201.051,128.255 200.93,128.681 200.868,129.168 200.625,130.018 
		200.382,130.93 200.019,131.658 199.653,132.448 199.229,133.178 198.805,133.907 198.257,134.517 197.771,135.125 
		197.163,135.672 196.617,136.277 196.312,136.401 196.069,136.584 195.584,136.947 194.612,137.677 193.58,138.286 
		192.607,138.894 191.514,139.378 190.968,139.621 190.481,139.926 188.295,140.837 185.985,141.446 184.771,141.688 
		183.616,141.93 182.342,142.054 181.126,142.236 178.575,142.355 175.901,142.176 173.412,141.93 170.98,141.506 168.733,141.021 
		166.486,140.354 164.421,139.562 162.415,138.588 160.532,137.553 159.378,136.764 158.347,136.035 157.312,135.185 
		156.462,134.393 155.612,133.481 154.882,132.57 154.154,131.599 153.607,130.686 152.999,129.594 152.573,128.559 
		152.149,127.463 151.907,126.37 151.603,125.154 151.481,123.939 151.359,122.663 151.359,121.445 151.359,121.445 	"/>
</g>
<polygon fill="#FFFFFF" points="234.189,19.186 250.998,19.186 257.158,43.032 264.006,19.186 279.407,19.186 265.99,58.354 
	248.152,58.354 "/>
<g>
	<rect x="59.271" y="161.583" fill="#FFFFFF" width="0.783" height="5.596"/>
	<polygon fill="#FFFFFF" points="62.775,162.265 60.855,162.265 60.855,161.583 65.479,161.583 65.479,162.265 63.559,162.265 
		63.559,167.179 62.775,167.179 	"/>
	<path fill="#FFFFFF" d="M70.779,161.489c1.35,0,2.036,0.737,2.036,0.737l-0.388,0.587c0,0-0.65-0.609-1.619-0.609
		c-1.253,0-2.07,0.953-2.07,2.14c0,1.196,0.832,2.21,2.077,2.21c1.058,0,1.73-0.729,1.73-0.729l0.419,0.562
		c0,0-0.77,0.89-2.174,0.89c-1.678,0-2.861-1.283-2.861-2.926C67.937,162.728,69.153,161.489,70.779,161.489"/>
	<path fill="#FFFFFF" d="M76.496,161.489c1.617,0,2.87,1.245,2.87,2.854c0,1.649-1.255,2.933-2.87,2.933
		c-1.617,0-2.877-1.283-2.877-2.933C73.617,162.734,74.877,161.489,76.496,161.489 M76.496,166.554c1.141,0,2.062-0.95,2.062-2.21
		c0-1.223-0.921-2.14-2.062-2.14s-2.069,0.917-2.069,2.14C74.427,165.604,75.355,166.554,76.496,166.554"/>
	<path fill="#FFFFFF" d="M80.504,161.583h0.78l2.489,3.636c0.206,0.305,0.467,0.81,0.467,0.81h0.018c0,0-0.055-0.5-0.055-0.81
		v-3.636h0.785v5.596h-0.768l-2.498-3.631c-0.205-0.31-0.467-0.817-0.467-0.817h-0.02c0,0,0.058,0.499,0.058,0.817v3.631h-0.79
		V161.583z"/>
	<path fill="#FFFFFF" d="M86.523,165.944c0,0,0.594,0.602,1.428,0.602c0.523,0,0.963-0.293,0.963-0.824
		c0-1.211-2.708-0.949-2.708-2.671c0-0.872,0.753-1.562,1.807-1.562c1.037,0,1.586,0.562,1.586,0.562l-0.361,0.65
		c0,0-0.512-0.488-1.225-0.488c-0.592,0-1.014,0.373-1.014,0.814c0,1.158,2.711,0.852,2.711,2.664c0,0.861-0.666,1.576-1.779,1.576
		c-1.188,0-1.854-0.739-1.854-0.739L86.523,165.944z"/>
	<path fill="#FFFFFF" d="M90.756,161.583h0.787v3.617c0,0.853,0.553,1.354,1.412,1.354c0.861,0,1.426-0.498,1.426-1.369v-3.599
		h0.785v3.618c0,1.242-0.898,2.074-2.201,2.074c-1.311,0-2.205-0.832-2.205-2.074v-3.618L90.756,161.583L90.756,161.583z"/>
	<polygon fill="#FFFFFF" points="96.608,161.583 97.391,161.583 97.391,166.5 99.897,166.5 99.897,167.179 96.608,167.179 	"/>
	<polygon fill="#FFFFFF" points="101.514,162.265 99.596,162.265 99.596,161.583 104.217,161.583 104.217,162.265 102.299,162.265 
		102.299,167.179 101.514,167.179 	"/>
	<rect x="105.016" y="161.583" fill="#FFFFFF" width="0.785" height="5.596"/>
	<path fill="#FFFFFF" d="M107.323,161.583h0.777l2.49,3.636c0.205,0.305,0.469,0.81,0.469,0.81h0.02c0,0-0.057-0.5-0.057-0.81
		v-3.636h0.783v5.596h-0.768l-2.498-3.631c-0.205-0.31-0.469-0.817-0.469-0.817h-0.016c0,0,0.053,0.499,0.053,0.817v3.631h-0.785
		V161.583z"/>
	<path fill="#FFFFFF" d="M115.805,161.489c1.34,0,2.037,0.672,2.037,0.672l-0.396,0.588c0,0-0.627-0.545-1.574-0.545
		c-1.314,0-2.109,0.958-2.109,2.154c0,1.305,0.889,2.195,2.062,2.195c0.967,0,1.584-0.697,1.584-0.697v-0.807h-0.91v-0.684h1.625
		v2.811h-0.689v-0.346c0-0.123,0.004-0.239,0.004-0.239h-0.016c0,0-0.607,0.685-1.721,0.685c-1.504,0-2.752-1.191-2.752-2.9
		C112.952,162.759,114.172,161.489,115.805,161.489"/>
	<path fill="#FFFFFF" d="M17.406,156.926c-3.945,0-8.092-0.87-11.01-2.2l1.279-5.941c3.123,0.97,6.299,1.637,9.832,1.637
		c3.945,0,4.713-0.766,4.713-3.636c0-3.072-0.152-3.43-5.736-4.661c-8.244-1.791-9.475-3.43-9.475-10.804
		c0-6.811,2.407-9.526,11.781-9.526c2.967,0,6.555,0.308,10.342,1.127l-0.768,6.452c-3.892-0.666-6.401-0.973-9.473-0.973
		c-3.43,0-4.201,0.614-4.201,3.123c0,3.274,0.154,3.326,5.532,4.609c9.218,2.202,9.679,3.995,9.679,10.702
		C29.903,153.597,27.7,156.926,17.406,156.926"/>
	<path fill="#FFFFFF" d="M66.547,156.926c-4.766,0-7.527-1.792-7.527-6.401v-13.111h-8.074l4.693-5.939h3.381v-5.994l7.372-1.023
		v7.017h5.687l-0.408,5.938h-5.278v12.086c0,1.025,0.616,1.383,1.538,1.383c0.818,0,1.997-0.104,3.072-0.461l0.871,5.583
		C70.234,156.567,68.238,156.926,66.547,156.926"/>
	<path fill="#FFFFFF" d="M90.006,156.413l-0.514-1.583c-2.868,1.583-5.432,2.096-7.121,2.096c-4.608,0-6.503-3.326-6.503-7.578
		c0-5.02,2.305-7.015,7.426-7.015h5.375v-1.896c0-2.559-0.455-3.432-4.403-3.432c-2.203,0-4.406,0.258-6.76,0.72l-0.975-5.532
		c2.357-0.715,6.098-1.228,8.963-1.228c8.657,0,10.547,2.611,10.547,9.524v15.929h-6.037V156.413L90.006,156.413z M88.67,147.45
		h-3.532c-1.588,0-2.201,0.41-2.201,1.793c0,1.381,0.562,1.943,1.998,1.943c1.537,0,2.61-0.359,3.739-0.872L88.67,147.45
		L88.67,147.45z"/>
	<path fill="#FFFFFF" d="M108.032,146.887c0,2.562,1.076,3.738,4.045,3.738c1.895,0,3.328-0.205,5.127-0.616l0.92,6.148
		c-2.51,0.562-4.303,0.769-6.047,0.769c-8.09,0-11.42-3.021-11.42-10.14v-5.686c0-7.119,3.328-10.14,11.42-10.14
		c1.744,0,3.535,0.206,6.047,0.769l-0.92,6.146c-1.539-0.357-3.688-0.615-5.127-0.615c-2.965,0-4.045,1.177-4.045,3.738V146.887z"/>
	<path fill="#FFFFFF" d="M42.172,164.404c-1.344,0.882-3.208,1.322-5.594,1.322c-0.721,0-1.432-0.024-2.139-0.075
		c-0.701-0.045-1.417-0.105-2.138-0.174v-5.74c0.653,0.064,1.325,0.127,2.014,0.195c0.69,0.065,1.37,0.077,2.062,0.046
		c0.916-0.095,1.596-0.454,2.038-1.075s0.662-1.312,0.662-2.061c0-0.558-0.098-1.082-0.294-1.572l-8.881-23.797h7.408l5.744,17.373
		h0.097l5.546-17.373h7.213l-10.598,28.512C44.559,162.046,43.512,163.52,42.172,164.404"/>
</g>
</svg>
