<?xml version="1.0" encoding="utf-8"?>
<!-- Generator: Adobe Illustrator 16.0.0, SVG Export Plug-In . SVG Version: 6.00 Build 0)  -->
<!DOCTYPE svg PUBLIC "-//W3C//DTD SVG 1.1//EN" "http://www.w3.org/Graphics/SVG/1.1/DTD/svg11.dtd">
<svg version="1.1" id="Layer_1" xmlns="http://www.w3.org/2000/svg" xmlns:xlink="http://www.w3.org/1999/xlink" x="0px" y="0px"
	 width="518px" height="234.747px" viewBox="0 -34.253 518 234.747" enable-background="new 0 -34.253 518 234.747"
	 xml:space="preserve">
<g id="Ebene_x0020_1">
	<g id="_153574520">
		<path id="_153577136" fill="#FFFFFF" d="M67.644,33.019c7.926,0,17.091-1.98,27.497-5.944v25.513
			c-2.312,0.826-5.615,1.733-9.909,2.726c1.321,3.797,1.982,7.348,1.982,10.651c0,10.569-3.179,19.775-9.537,27.62
			c-6.358,7.845-14.575,12.512-24.649,13.996c-6.604,0.991-9.908,4.542-9.908,10.652c0,2.146,1.073,4.294,3.22,6.44
			c2.808,3.139,6.936,5.121,12.385,5.946c23.617,3.633,35.424,13.458,35.424,29.477c0,25.6-15.276,38.397-45.827,38.397
			c-12.551,0-22.873-2.229-30.964-6.688C7.118,186.192,2,177.356,2,165.298c0-13.871,7.679-23.366,23.036-28.484v-0.495
			c-5.614-3.469-8.42-8.754-8.42-15.855c0-9.248,2.642-15.029,7.927-17.339v-0.496c-5.285-1.815-9.992-5.946-14.121-12.386
			c-4.624-6.936-6.936-14.368-6.936-22.294c0-11.891,4.212-21.798,12.633-29.725c8.093-7.432,17.753-11.147,28.983-11.147
			C53.194,27.075,60.708,29.057,67.644,33.019z M68.634,163.318L68.634,163.318c0-8.423-6.935-12.633-20.808-12.633
			c-13.376,0-20.064,4.376-20.064,13.13c0,8.585,7.267,12.879,21.798,12.879C62.276,176.694,68.634,172.237,68.634,163.318z
			 M30.487,68.196L30.487,68.196c0,11.395,5.202,17.093,15.605,17.093c10.074,0,15.111-5.782,15.111-17.341
			c0-4.79-1.156-8.917-3.468-12.386c-2.808-3.798-6.688-5.698-11.643-5.698C35.689,49.864,30.487,55.975,30.487,68.196z"/>
		<path id="_153577064" fill="#FFFFFF" d="M121.408,8.99c-4.79,0-8.876-1.816-12.262-5.449c-3.385-3.634-5.078-7.926-5.078-12.881
			c0-5.12,1.693-9.495,5.078-13.129c3.386-3.634,7.473-5.45,12.262-5.45c4.624,0,8.628,1.816,12.015,5.45
			c3.385,3.634,5.078,8.009,5.078,13.129c0,4.955-1.692,9.247-5.078,12.881C130.036,7.175,126.031,8.99,121.408,8.99z"/>
		<path id="_153576992" fill="#FFFFFF" d="M107.289,138.298c0.33-3.302,0.494-8.915,0.494-16.844V44.413
			c0-7.761-0.164-13.127-0.494-16.101h27.992c-0.331,3.138-0.497,8.34-0.497,15.606v76.049c0,8.423,0.166,14.532,0.497,18.33
			H107.289z"/>
		<path id="_153576920" fill="#FFFFFF" d="M186.538,28.313h21.55v24.028c-0.825,0-2.353-0.082-4.582-0.248
			c-2.229-0.164-4.335-0.248-6.317-0.248h-10.651v46.076c0,11.064,3.633,16.597,10.899,16.597c5.12,0,9.743-1.403,13.873-4.212
			v24.771c-6.111,3.304-13.459,4.955-22.048,4.955c-12.056,0-20.394-4.293-25.019-12.881c-3.468-6.441-5.202-16.597-5.202-30.469
			V52.341h0.248v-0.496l-3.715-0.247c-2.147,0-4.955,0.247-8.422,0.743V28.313h12.137v-9.661c0-4.624-0.248-8.34-0.743-11.147
			h28.735c-0.496,3.137-0.743,6.688-0.743,10.651V28.313L186.538,28.313z"/>
		<path id="_153576848" fill="#FFFFFF" d="M273.549,27.569c-7.101,0-14.533,2.478-22.294,7.431V-8.349
			c0-9.413,0.165-15.606,0.495-18.578h-28.24c0.497,2.643,0.744,8.834,0.744,18.578v131.042c0,7.595-0.248,12.799-0.744,15.605
			h28.735c0-0.496-0.164-2.518-0.495-6.068c-0.33-3.551-0.495-6.73-0.495-9.537V61.754c5.78-5.449,11.394-8.173,16.844-8.173
			c6.277,0,11.065,3.136,14.368,9.411c2.476,4.955,3.716,11.148,3.716,18.58l-0.247,33.44c0,5.616-0.413,13.378-1.239,23.285h29.974
			c-0.66-4.127-0.991-11.725-0.991-22.79V81.573c0-14.368-3.22-26.588-9.661-36.663C296.752,33.349,286.595,27.569,273.549,27.569
			L273.549,27.569z"/>
		<path id="_153576776" fill="#FFFFFF" d="M361.249,139.29c-13.046,0-22.706-5.781-28.983-17.342
			c-4.953-9.412-7.432-21.716-7.432-36.909V51.103c0-11.229-0.328-18.827-0.99-22.79h29.726c-0.494,3.633-0.825,11.395-0.99,23.285
			l-0.247,33.442c0,9.412,1.074,16.185,3.221,20.311c2.477,5.121,7.018,7.682,13.624,7.682c4.624,0,9.826-2.727,15.606-8.174V43.919
			c0-2.808-0.165-6.029-0.496-9.661c-0.331-3.634-0.496-5.615-0.496-5.945h28.735c-0.33,2.807-0.495,8.01-0.495,15.606v75.802
			c0,9.742,0.165,15.936,0.495,18.577h-27.002v-8.915C377.928,135.987,369.835,139.29,361.249,139.29L361.249,139.29z"/>
		<path id="_153576704" fill="#FFFFFF" d="M472.729,139.041c-8.915,0-16.348-3.219-22.294-9.658v8.915h-26.257
			c0.496-2.807,0.744-8.011,0.744-15.605V-8.349c0-9.744-0.248-15.936-0.744-18.578h28.239c-0.33,2.972-0.494,9.165-0.494,18.578
			v43.103c7.595-4.79,15.027-7.185,22.295-7.185c13.044,0,23.285,5.78,30.716,17.34c6.274,10.075,9.413,22.295,9.413,36.663
			c0,14.697-3.302,27.495-9.907,38.396C496.512,132.685,485.943,139.041,472.729,139.041z M469.015,53.581L469.015,53.581
			c-5.45,0-11.147,2.724-17.092,8.173v42.854c5.285,5.12,10.486,7.682,15.605,7.682c6.44,0,11.312-3.551,14.617-10.653
			c2.642-5.614,3.963-12.304,3.963-20.064C486.109,62.911,480.41,53.581,469.015,53.581L469.015,53.581z"/>
		<g>
			<path id="_153576632" fill="#FFFFFF" d="M126.587,162.042c-1.571-2.132-3.593-3.479-6.342-3.479
				c-2.639,0-5.164,2.021-5.164,4.772c0,7.128,16.782,4.151,16.782,18.354c0,8.477-5.276,14.481-13.92,14.481
				c-5.838,0-10.104-3.367-13.023-8.252l5.333-5.221c1.122,3.257,4.096,6.175,7.633,6.175c3.368,0,5.445-2.861,5.445-6.118
				c0-4.379-4.042-5.612-7.353-6.902c-5.445-2.246-9.431-4.996-9.431-11.562c0-7.017,5.221-12.687,12.349-12.687
				c3.761,0,8.981,1.853,11.563,4.715L126.587,162.042L126.587,162.042z"/>
			<path id="_153576560" fill="#FFFFFF" d="M155.096,196.17c-12.912,0-20.938-9.879-20.938-22.341
				c0-12.572,8.308-22.227,20.938-22.227c12.628,0,20.936,9.654,20.936,22.227C176.032,186.291,168.006,196.17,155.096,196.17z
				 M155.096,159.742L155.096,159.742c-7.802,0-12.406,6.903-12.406,13.752c0,6.51,3.256,14.536,12.406,14.536
				c9.148,0,12.403-8.026,12.403-14.536C167.499,166.646,162.896,159.742,155.096,159.742z"/>
			<path id="_153576488" fill="#FFFFFF" d="M208.354,163.949c-2.302-2.805-5.781-4.489-9.318-4.489
				c-7.915,0-12.461,7.297-12.461,14.596c0,7.128,4.715,14.255,12.405,14.255c3.536,0,7.072-1.853,9.374-4.488v9.82
				c-3.088,1.461-6.174,2.527-9.599,2.527c-11.898,0-20.711-10.272-20.711-21.946c0-12.013,8.476-22.621,20.88-22.621
				c3.311,0,6.567,0.898,9.43,2.469V163.949z"/>
			<polygon id="_153576416" fill="#FFFFFF" points="222.044,195.047 213.794,195.047 213.794,152.726 222.044,152.726 			"/>
			<path id="_153576344" fill="#FFFFFF" d="M236.692,186.123l-3.48,8.924h-8.7l16.503-43.444h6.399l16.053,43.444h-8.813
				l-3.255-8.924H236.692z M243.821,164.007L243.821,164.007h-0.113l-4.658,15.381h10.048L243.821,164.007z"/>
			<polygon id="_153576272" fill="#FFFFFF" points="274.235,187.864 285.911,187.864 285.911,195.047 265.986,195.047 
				265.986,152.726 274.235,152.726 			"/>
			<path id="_153576200" fill="#FFFFFF" d="M333.049,163.949c-2.3-2.805-5.78-4.489-9.315-4.489
				c-7.915,0-12.462,7.297-12.462,14.596c0,7.128,4.716,14.255,12.404,14.255c3.536,0,7.073-1.853,9.373-4.488v9.82
				c-3.086,1.461-6.173,2.527-9.597,2.527c-11.899,0-20.713-10.272-20.713-21.946c0-12.013,8.478-22.621,20.881-22.621
				c3.312,0,6.566,0.898,9.429,2.469V163.949z"/>
			<path id="_153576128" fill="#FFFFFF" d="M357.41,196.17c-12.913,0-20.938-9.879-20.938-22.341
				c0-12.572,8.307-22.227,20.938-22.227c12.626,0,20.933,9.654,20.933,22.227C378.342,186.291,370.316,196.17,357.41,196.17z
				 M357.41,159.742L357.41,159.742c-7.804,0-12.407,6.903-12.407,13.752c0,6.51,3.256,14.536,12.407,14.536
				c9.146,0,12.403-8.026,12.403-14.536C369.813,166.646,365.209,159.742,357.41,159.742z"/>
			<path id="_153576056" fill="#FFFFFF" d="M382.376,152.726h11.789c12.234,0,20.431,9.148,20.431,21.216
				c0,11.901-8.419,21.105-20.488,21.105h-11.731V152.726z M390.63,187.864L390.63,187.864h1.345c10.159,0,14.09-5.613,14.09-13.979
				c0-9.204-4.716-13.975-14.09-13.975h-1.345V187.864z"/>
			<polygon id="_153575504" fill="#FFFFFF" points="426.881,195.047 418.627,195.047 418.627,152.726 426.881,152.726 			"/>
			<polygon id="_153574688" fill="#FFFFFF" points="432.883,151.603 438.833,151.603 461.117,181.184 461.229,181.184 
				461.229,152.726 469.481,152.726 469.481,195.889 463.53,195.889 441.25,166.309 441.136,166.309 441.136,195.047 
				432.883,195.047 			"/>
			<path id="_153575624" fill="#FFFFFF" d="M512.863,172.539v1.066c0,11.955-6.119,22.564-19.253,22.564
				c-12.349,0-20.15-10.439-20.15-22.114c0-12.068,8.026-22.453,20.655-22.453c7.185,0,13.473,3.649,16.728,10.104l-7.296,3.929
				c-1.685-3.815-5.278-6.734-9.656-6.734c-7.971,0-11.899,8.139-11.899,15.155c0,7.015,3.985,14.816,11.956,14.816
				c5.164,0,9.487-4.49,9.654-9.599h-8.98v-6.734H512.863L512.863,172.539z"/>
		</g>
	</g>
</g>
</svg>
