<?xml version="1.0" encoding="utf-8"?>
<!-- Generator: Adobe Illustrator 16.0.0, SVG Export Plug-In . SVG Version: 6.00 Build 0)  -->
<!DOCTYPE svg PUBLIC "-//W3C//DTD SVG 1.1//EN" "http://www.w3.org/Graphics/SVG/1.1/DTD/svg11.dtd">
<svg version="1.1" id="Layer_1" xmlns="http://www.w3.org/2000/svg" xmlns:xlink="http://www.w3.org/1999/xlink" x="0px" y="0px"
	 width="370.331px" height="385.753px" viewBox="0 0 370.331 385.753" enable-background="new 0 0 370.331 385.753"
	 xml:space="preserve">
<g>
	<polygon fill="#E57E25" points="299.332,260.03 185.045,325.883 70.332,259.786 70.332,319.777 184.832,385.753 299.332,319.777 	
		"/>
</g>
<g>
	<polygon fill="#E57E25" points="203.654,29.875 318.044,96.298 318.374,229.063 370.331,199.067 369.999,66.546 255.398,0 	"/>
</g>
<g>
	<polygon fill="#E57E25" points="166.675,29.875 52.288,96.298 51.955,229.063 0,199.067 0.33,66.546 114.931,0 	"/>
</g>
<g>
	<g>
		<polygon fill="#F29646" points="185.306,325.883 70.332,259.786 70.332,319.777 185.105,385.753 		"/>
	</g>
	<g>
		<polygon fill="#BA6828" points="184.806,385.753 299.332,319.777 299.332,260.03 184.89,325.883 		"/>
	</g>
	<g>
		<polygon fill="#BA6828" points="318.044,96.298 318.374,229.063 370.331,199.067 369.999,66.546 		"/>
	</g>
	<g>
		<polygon fill="#F29646" points="52.288,96.298 51.955,229.063 0,199.067 0.33,66.546 		"/>
	</g>
</g>
<polygon fill="#E57E25" points="70.332,107.108 184.832,41.134 299.332,107.108 299.332,239.06 184.832,305.033 70.332,239.06 "/>
<g>
	<rect x="180.471" y="200.308" fill="#FFFFFF" width="1.251" height="8.938"/>
	<polygon fill="#FFFFFF" points="186.068,201.396 183.004,201.396 183.004,200.308 190.388,200.308 190.388,201.396 
		187.321,201.396 187.321,209.246 186.068,209.246 	"/>
	<path fill="#FFFFFF" d="M198.852,200.158c2.156,0,3.255,1.178,3.255,1.178l-0.622,0.938c0,0-1.038-0.974-2.584-0.974
		c-2.003,0-3.307,1.522-3.307,3.417c0,1.911,1.325,3.531,3.316,3.531c1.689,0,2.764-1.165,2.764-1.165l0.671,0.897
		c0,0-1.231,1.421-3.474,1.421c-2.679,0-4.571-2.048-4.571-4.675C194.312,202.137,196.255,200.158,198.852,200.158"/>
	<path fill="#FFFFFF" d="M207.982,200.158c2.582,0,4.583,1.989,4.583,4.56c0,2.636-2.003,4.685-4.583,4.685
		c-2.581,0-4.595-2.048-4.595-4.685C203.384,202.147,205.397,200.158,207.982,200.158 M207.982,208.249
		c1.822,0,3.292-1.519,3.292-3.531c0-1.953-1.468-3.417-3.292-3.417c-1.823,0-3.305,1.464-3.305,3.417
		C204.678,206.73,206.159,208.249,207.982,208.249"/>
	<path fill="#FFFFFF" d="M214.384,200.308h1.246l3.976,5.808c0.328,0.487,0.746,1.292,0.746,1.292h0.028
		c0,0-0.087-0.797-0.087-1.292v-5.808h1.253v8.938h-1.226l-3.99-5.799c-0.326-0.495-0.747-1.306-0.747-1.306h-0.029
		c0,0,0.092,0.797,0.092,1.306v5.799h-1.262V200.308L214.384,200.308z"/>
	<path fill="#FFFFFF" d="M223.999,207.273c0,0,0.946,0.961,2.278,0.961c0.837,0,1.538-0.467,1.538-1.315
		c0-1.935-4.322-1.519-4.322-4.267c0-1.394,1.201-2.496,2.886-2.496c1.656,0,2.533,0.899,2.533,0.899l-0.578,1.04
		c0,0-0.817-0.78-1.955-0.78c-0.945,0-1.622,0.594-1.622,1.3c0,1.851,4.331,1.36,4.331,4.255c0,1.377-1.062,2.517-2.842,2.517
		c-1.896,0-2.959-1.179-2.959-1.179L223.999,207.273z"/>
	<path fill="#FFFFFF" d="M230.757,200.308h1.259v5.777c0,1.362,0.882,2.164,2.254,2.164c1.376,0,2.276-0.797,2.276-2.187v-5.748
		h1.255v5.777c0,1.986-1.435,3.315-3.516,3.315c-2.094,0-3.522-1.329-3.522-3.315v-5.777L230.757,200.308L230.757,200.308z"/>
	<polygon fill="#FFFFFF" points="240.103,200.308 241.354,200.308 241.354,208.161 245.356,208.161 245.356,209.246 
		240.103,209.246 	"/>
	<polygon fill="#FFFFFF" points="247.938,201.396 244.876,201.396 244.876,200.308 252.255,200.308 252.255,201.396 249.19,201.396 
		249.19,209.246 247.938,209.246 	"/>
	<rect x="253.531" y="200.308" fill="#FFFFFF" width="1.253" height="8.938"/>
	<path fill="#FFFFFF" d="M257.216,200.308h1.241l3.977,5.808c0.328,0.487,0.749,1.292,0.749,1.292h0.031
		c0,0-0.092-0.797-0.092-1.292v-5.808h1.252v8.938h-1.225l-3.991-5.799c-0.326-0.495-0.746-1.306-0.746-1.306h-0.026
		c0,0,0.085,0.797,0.085,1.306v5.799h-1.255V200.308L257.216,200.308z"/>
	<path fill="#FFFFFF" d="M270.764,200.158c2.14,0,3.254,1.075,3.254,1.075l-0.636,0.938c0,0-1-0.87-2.513-0.87
		c-2.1,0-3.37,1.53-3.37,3.44c0,2.083,1.421,3.508,3.296,3.508c1.544,0,2.528-1.114,2.528-1.114v-1.288h-1.454v-1.094h2.596v4.489
		h-1.101v-0.551c0-0.197,0.006-0.381,0.006-0.381h-0.023c0,0-0.971,1.093-2.748,1.093c-2.403,0-4.396-1.904-4.396-4.634
		C266.206,202.188,268.156,200.158,270.764,200.158"/>
	<path fill="#FFFFFF" d="M111.884,192.872c-6.301,0-12.924-1.392-17.585-3.516l2.044-9.488c4.987,1.55,10.062,2.615,15.702,2.615
		c6.301,0,7.527-1.224,7.527-5.807c0-4.908-0.242-5.478-9.162-7.444c-13.166-2.861-15.131-5.478-15.131-17.255
		c0-10.876,3.845-15.215,18.817-15.215c4.737,0,10.468,0.49,16.515,1.8l-1.224,10.305c-6.215-1.065-10.226-1.554-15.131-1.554
		c-5.477,0-6.709,0.981-6.709,4.988c0,5.228,0.246,5.312,8.835,7.36c14.723,3.518,15.459,6.381,15.459,17.093
		C131.842,187.554,128.324,192.872,111.884,192.872"/>
	<path fill="#FFFFFF" d="M192.092,192.872c-7.61,0-12.02-2.863-12.02-10.225v-20.939h-12.895l7.493-9.486h5.401v-9.573l11.773-1.636
		v11.207h9.082l-0.653,9.484h-8.429v19.304c0,1.638,0.984,2.208,2.454,2.208c1.31,0,3.192-0.166,4.91-0.736l1.39,8.916
		C197.982,192.297,194.793,192.872,192.092,192.872"/>
	<path fill="#FFFFFF" d="M229.562,192.053l-0.821-2.529c-4.581,2.529-8.676,3.348-11.372,3.348c-7.358,0-10.386-5.314-10.386-12.105
		c0-8.015,3.68-11.201,11.861-11.201h8.583v-3.031c0-4.085-0.727-5.48-7.031-5.48c-3.519,0-7.038,0.413-10.797,1.149l-1.556-8.836
		c3.765-1.139,9.737-1.958,14.314-1.958c13.825,0,16.847,4.168,16.847,15.211v25.438h-9.643V192.053L229.562,192.053z
		 M227.427,177.737h-5.641c-2.536,0-3.516,0.655-3.516,2.865c0,2.205,0.897,3.104,3.191,3.104c2.455,0,4.167-0.575,5.971-1.394
		L227.427,177.737L227.427,177.737z"/>
	<path fill="#FFFFFF" d="M258.349,176.838c0,4.093,1.719,5.971,6.462,5.971c3.023,0,5.313-0.328,8.187-0.985l1.468,9.821
		c-4.007,0.897-6.871,1.227-9.656,1.227c-12.921,0-18.24-4.825-18.24-16.194v-9.082c0-11.369,5.315-16.194,18.24-16.194
		c2.785,0,5.646,0.33,9.656,1.227l-1.468,9.817c-2.459-0.571-5.891-0.981-8.187-0.981c-4.737,0-6.462,1.878-6.462,5.969V176.838z"/>
	<path fill="#FFFFFF" d="M153.164,204.813c-2.146,1.411-5.124,2.113-8.935,2.113c-1.149,0-2.287-0.039-3.417-0.122
		c-1.117-0.07-2.263-0.166-3.412-0.277v-9.164c1.044,0.102,2.117,0.201,3.215,0.309c1.104,0.106,2.189,0.124,3.293,0.075
		c1.462-0.153,2.549-0.726,3.256-1.716c0.706-0.993,1.056-2.097,1.056-3.293c0-0.889-0.154-1.728-0.469-2.509l-14.183-38.007h11.831
		l9.174,27.748h0.155l8.856-27.748h11.52l-16.925,45.537C156.976,201.049,155.303,203.402,153.164,204.813"/>
</g>
</svg>
