<?xml version="1.0" encoding="utf-8"?>
<!-- Generator: Adobe Illustrator 16.0.0, SVG Export Plug-In . SVG Version: 6.00 Build 0)  -->
<!DOCTYPE svg PUBLIC "-//W3C//DTD SVG 1.1//EN" "http://www.w3.org/Graphics/SVG/1.1/DTD/svg11.dtd">
<svg version="1.1" id="Layer_1" xmlns="http://www.w3.org/2000/svg" xmlns:xlink="http://www.w3.org/1999/xlink" x="0px" y="0px"
	 width="430px" height="493.678px" viewBox="0 0 430 493.678" enable-background="new 0 0 430 493.678" xml:space="preserve">
<polygon fill="#E57E25" points="0,123.42 215,0 430,123.42 430,370.259 215,493.678 0,370.259 "/>
<g>
	<rect x="206.069" y="297.769" fill="#FFFFFF" width="2.34" height="16.72"/>
	<polygon fill="#FFFFFF" points="216.541,299.805 210.805,299.805 210.805,297.769 224.619,297.769 224.619,299.805 
		218.881,299.805 218.881,314.486 216.541,314.486 	"/>
	<path fill="#FFFFFF" d="M240.453,297.488c4.033,0,6.084,2.203,6.084,2.203l-1.158,1.754c0,0-1.943-1.821-4.838-1.821
		c-3.744,0-6.185,2.849-6.185,6.394c0,3.574,2.483,6.604,6.205,6.604c3.159,0,5.17-2.178,5.17-2.178l1.251,1.678
		c0,0-2.298,2.657-6.494,2.657c-5.012,0-8.549-3.833-8.549-8.742C231.96,301.189,235.596,297.488,240.453,297.488"/>
	<path fill="#FFFFFF" d="M257.533,297.488c4.832,0,8.574,3.72,8.574,8.529c0,4.928-3.748,8.761-8.574,8.761
		c-4.832,0-8.596-3.833-8.596-8.761C248.932,301.208,252.696,297.488,257.533,297.488 M257.533,312.621
		c3.408,0,6.158-2.841,6.158-6.604c0-3.653-2.749-6.394-6.158-6.394c-3.408,0-6.182,2.74-6.182,6.394
		C251.352,309.78,254.125,312.621,257.533,312.621"/>
	<path fill="#FFFFFF" d="M269.508,297.769h2.331l7.438,10.863c0.615,0.91,1.395,2.419,1.395,2.419h0.052
		c0,0-0.162-1.493-0.162-2.419v-10.863h2.345v16.72h-2.293l-7.463-10.848c-0.612-0.925-1.396-2.443-1.396-2.443h-0.057
		c0,0,0.172,1.491,0.172,2.443v10.848h-2.361V297.769L269.508,297.769z"/>
	<path fill="#FFFFFF" d="M287.492,310.8c0,0,1.773,1.797,4.266,1.797c1.564,0,2.877-0.875,2.877-2.462
		c0-3.618-8.088-2.837-8.088-7.98c0-2.604,2.249-4.666,5.398-4.666c3.099,0,4.738,1.682,4.738,1.682l-1.08,1.943
		c0,0-1.529-1.46-3.658-1.46c-1.769,0-3.029,1.114-3.029,2.435c0,3.46,8.1,2.544,8.1,7.959c0,2.574-1.99,4.709-5.315,4.709
		c-3.549,0-5.538-2.208-5.538-2.208L287.492,310.8z"/>
	<path fill="#FFFFFF" d="M300.137,297.769h2.353v10.808c0,2.547,1.651,4.045,4.218,4.045c2.574,0,4.261-1.489,4.261-4.091v-10.751
		h2.347v10.809c0,3.711-2.686,6.197-6.578,6.197c-3.915,0-6.588-2.486-6.588-6.197v-10.809L300.137,297.769L300.137,297.769z"/>
	<polygon fill="#FFFFFF" points="317.62,297.769 319.959,297.769 319.959,312.46 327.447,312.46 327.447,314.486 317.62,314.486 	
		"/>
	<polygon fill="#FFFFFF" points="332.277,299.805 326.548,299.805 326.548,297.769 340.354,297.769 340.354,299.805 
		334.623,299.805 334.623,314.486 332.277,314.486 	"/>
	<rect x="342.741" y="297.769" fill="#FFFFFF" width="2.345" height="16.72"/>
	<path fill="#FFFFFF" d="M349.633,297.769h2.322l7.441,10.863c0.611,0.91,1.398,2.419,1.398,2.419h0.059c0,0-0.17-1.493-0.17-2.419
		v-10.863h2.341v16.72h-2.293l-7.463-10.848c-0.612-0.925-1.4-2.443-1.4-2.443h-0.046c0,0,0.156,1.491,0.156,2.443v10.848h-2.346
		V297.769L349.633,297.769z"/>
	<path fill="#FFFFFF" d="M374.977,297.488c4.002,0,6.086,2.008,6.086,2.008l-1.186,1.757c0,0-1.873-1.629-4.703-1.629
		c-3.927,0-6.302,2.862-6.302,6.436c0,3.898,2.656,6.562,6.161,6.562c2.889,0,4.732-2.084,4.732-2.084v-2.409h-2.719v-2.045h4.855
		v8.398h-2.061v-1.034c0-0.367,0.012-0.713,0.012-0.713h-0.046c0,0-1.814,2.043-5.141,2.043c-4.493,0-8.222-3.56-8.222-8.666
		C366.45,301.282,370.098,297.488,374.977,297.488"/>
	<path fill="#FFFFFF" d="M80.992,283.854c-11.787,0-24.176-2.601-32.894-6.574l3.822-17.751c9.331,2.897,18.819,4.891,29.375,4.891
		c11.787,0,14.081-2.287,14.081-10.862c0-9.18-0.455-10.248-17.139-13.926c-24.631-5.352-28.307-10.248-28.307-32.279
		c0.001-20.347,7.192-28.46,35.2-28.46c8.864,0,19.583,0.918,30.897,3.367l-2.293,19.277c-11.626-1.99-19.125-2.906-28.301-2.906
		c-10.247,0-12.552,1.835-12.552,9.331c0,9.782,0.461,9.937,16.528,13.77c27.54,6.58,28.917,11.937,28.917,31.976
		C118.329,273.909,111.747,283.854,80.992,283.854"/>
	<path fill="#FFFFFF" d="M227.809,283.854c-14.239,0-22.489-5.354-22.489-19.126v-39.172h-24.124l14.022-17.746h10.102v-17.908
		l22.026-3.058v20.963h16.989l-1.22,17.743h-15.77v36.109c0,3.064,1.841,4.13,4.594,4.13c2.446,0,5.968-0.308,9.18-1.376
		l2.603,16.68C238.826,282.783,232.861,283.854,227.809,283.854"/>
	<path fill="#FFFFFF" d="M297.897,282.322l-1.535-4.729c-8.566,4.729-16.228,6.261-21.272,6.261
		c-13.768,0-19.429-9.938-19.429-22.642c0-14.996,6.887-20.957,22.187-20.957h16.059v-5.667c0-7.644-1.359-10.252-13.152-10.252
		c-6.582,0-13.165,0.771-20.196,2.151l-2.911-16.53c7.043-2.135,18.217-3.667,26.778-3.667c25.862,0,31.511,7.802,31.511,28.456
		v47.589h-18.037L297.897,282.322L297.897,282.322z M293.904,255.545h-10.549c-4.744,0-6.576,1.225-6.576,5.356
		c0,4.125,1.681,5.807,5.97,5.807c4.593,0,7.796-1.073,11.169-2.606L293.904,255.545L293.904,255.545z"/>
	<path fill="#FFFFFF" d="M351.751,253.861c0,7.655,3.216,11.168,12.086,11.168c5.659,0,9.942-0.612,15.317-1.841l2.748,18.37
		c-7.499,1.681-12.855,2.296-18.066,2.296c-24.17,0-34.119-9.024-34.119-30.294v-16.987c0-21.269,9.943-30.293,34.119-30.293
		c5.211,0,10.561,0.615,18.066,2.296l-2.748,18.364c-4.599-1.068-11.018-1.837-15.317-1.837c-8.858,0-12.086,3.514-12.086,11.168
		V253.861z"/>
	<path fill="#FFFFFF" d="M154.983,306.197c-4.015,2.637-9.584,3.951-16.712,3.951c-2.153,0-4.277-0.073-6.39-0.226
		c-2.094-0.134-4.234-0.313-6.387-0.52v-17.147c1.953,0.191,3.96,0.378,6.017,0.582c2.062,0.194,4.093,0.23,6.16,0.137
		c2.737-0.283,4.768-1.356,6.089-3.212c1.321-1.855,1.978-3.921,1.978-6.157c0-1.664-0.292-3.233-0.879-4.697l-26.532-71.097h22.133
		l17.162,51.905h0.288l16.569-51.905h21.55l-31.663,85.185C162.115,299.151,158.986,303.556,154.983,306.197"/>
</g>
</svg>
