<?xml version="1.0" encoding="utf-8"?>
<!-- Generator: Adobe Illustrator 16.0.0, SVG Export Plug-In . SVG Version: 6.00 Build 0)  -->
<!DOCTYPE svg PUBLIC "-//W3C//DTD SVG 1.1//EN" "http://www.w3.org/Graphics/SVG/1.1/DTD/svg11.dtd">
<svg version="1.1" id="Layer_1" xmlns="http://www.w3.org/2000/svg" xmlns:xlink="http://www.w3.org/1999/xlink" x="0px" y="0px"
	 width="413.203px" height="272.176px" viewBox="0 0 413.203 272.176" enable-background="new 0 0 413.203 272.176"
	 xml:space="preserve">
<g>
	<g>
		<rect x="7.193" y="7.195" fill="#FFFFFF" width="398.816" height="257.789"/>
		<path fill="#E57E25" d="M413.203,272.176H0V0h413.203V272.176z M14.386,257.791h384.431V14.389H14.386V257.791z"/>
	</g>
	<g>
		<g>
			<path fill="#E57E25" d="M292.117,188.986l-0.416-2.062l-0.492-1.728l-0.821-1.565l-0.498-0.74l-0.408-0.58l-0.743-0.822
				l-0.824-0.742l-0.904-0.744l-0.904-0.576l-1.154-0.659l-1.155-0.492l-2.468-0.909l-2.967-0.738l-1.646-0.331l-1.648-0.163
				l-1.812-0.168l-1.894-0.08l-3.953-0.083h-3.294l-3.046,0.248l-2.8,0.246l-2.553,0.578l-2.472,0.576l-2.223,0.745l-1.978,0.826
				l-1.729,1.066l-1.647,1.07l-1.4,1.319l-1.234,1.399l-0.904,1.567l-0.824,1.646l-0.577,1.898l-0.411,1.892l-0.085,2.225h18.78
				l0.081-1.396l0.413-1.07l0.577-0.908l0.822-0.741l0.989-0.577l1.316-0.415l1.483-0.247l1.812-0.082h1.482l1.4,0.246l1.07,0.332
				l0.988,0.576l0.656,0.575l0.578,0.911l0.328,0.987l0.165,1.237l-0.165,0.82l-0.248,0.826l-0.247,0.326l-0.163,0.415l-0.579,0.659
				l-0.905,0.492l-0.907,0.495l-1.067,0.329l-1.238,0.33l-8.974,1.318l-2.966,0.41l-2.636,0.579l-2.305,0.576l-1.896,0.655
				l-2.634,1.073l-1.233,0.579l-1.07,0.742l-1.071,0.658l-0.908,0.824l-1.481,1.727l-1.234,1.896l-0.494,0.988l-0.329,1.154
				l-0.495,2.39l-0.164,1.235v1.404l0.086,1.81l0.246,1.813l0.412,1.652l0.578,1.645l0.74,1.402l0.904,1.396l1.072,1.238l1.397,1.24
				l1.235,0.82l1.4,0.74l1.481,0.658l1.648,0.58l1.647,0.41l1.894,0.331l1.896,0.166l2.059,0.079l1.318-0.079l0.656-0.085h0.74
				l1.238-0.163l1.317-0.085l1.154-0.33l0.577-0.162l0.657-0.082l1.152-0.33l1.153-0.329l0.988-0.495l0.988-0.414l0.412-0.326
				l0.494-0.249l0.988-0.494l0.822-0.659l0.904-0.656l0.33-0.416l0.41-0.328l0.824-0.658h0.085l0.081,2.471l0.164,1.238l0.415,1.316
				h20.667l-0.657-1.074l-0.493-1.152l-0.41-1.318l-0.332-1.402l-0.328-1.561l-0.164-1.73l-0.084-1.815v-1.892v-21.675
				L292.117,188.986L292.117,188.986L292.117,188.986z M265.185,208.764l7.987-2.471v4.858l-0.165,0.905l-0.162,0.908l-0.25,0.824
				l-0.162,0.41l-0.084,0.494l-0.413,0.66l-0.248,0.331l-0.165,0.413l-0.492,0.657l-0.494,0.661l-0.66,0.404l-0.329,0.172
				l-0.163,0.08l-0.082,0.168l-0.74,0.328l-0.66,0.327l-0.826,0.165h-0.246l-0.163,0.086l-0.329,0.164l-1.646,0.162l-1.318-0.162
				l-1.153-0.254l-1.072-0.407l-0.905-0.579l-0.907-0.906l-0.577-0.822l-0.246-0.499l-0.083-0.407l-0.084-0.905l0.084-1.241
				l0.328-0.986l0.495-0.904l0.824-0.662l0.82-0.578l1.156-0.492l1.4-0.494L265.185,208.764L265.185,208.764L265.185,208.764z"/>
			<polygon fill="#E57E25" points="384.682,193.682 384.597,191.791 384.352,190.059 384.021,188.412 383.61,186.924 
				383.031,185.359 382.376,184.04 381.552,182.725 380.647,181.573 379.328,180.169 378.586,179.51 377.927,179.02 
				376.362,177.942 374.715,177.201 373.73,176.791 372.822,176.543 370.846,176.131 368.707,175.885 366.48,175.802 
				364.423,175.802 362.527,176.047 360.634,176.294 358.904,176.791 357.175,177.287 355.692,178.026 354.21,178.767 
				352.892,179.756 349.761,182.476 348.446,184.04 347.373,182.148 346.714,181.239 346.058,180.496 345.233,179.673 
				344.41,179.02 343.504,178.355 342.599,177.863 341.527,177.287 340.539,176.87 338.48,176.294 336.256,175.885 334.116,175.802 
				331.231,175.885 328.513,176.294 326.042,176.87 323.818,177.863 321.762,178.934 319.865,180.418 318.96,181.158 
				318.223,182.062 316.82,184.04 316.574,184.04 316.574,176.955 297.055,176.955 297.055,230.104 317.232,230.104 
				317.232,201.342 317.316,199.038 317.645,197.143 317.806,196.237 318.14,195.498 318.467,194.752 318.96,194.176 
				319.865,193.104 321.103,192.445 322.505,191.947 324.15,191.869 325.055,191.869 325.962,192.033 326.703,192.199 
				327.528,192.529 328.105,192.86 328.763,193.435 329.255,194.013 329.751,194.752 329.917,195.248 330.163,195.904 
				330.491,197.477 330.738,199.203 330.738,200.192 330.818,201.342 330.818,230.104 350.917,230.104 350.917,201.342 
				350.997,199.038 351.326,197.143 351.492,196.237 351.822,195.498 352.153,194.752 352.645,194.176 353.55,193.104 
				354.784,192.445 356.185,191.947 357.916,191.869 358.82,191.869 359.728,192.033 360.469,192.199 361.292,192.529 
				361.871,192.86 362.527,193.435 363.021,194.013 363.517,194.752 363.682,195.248 363.926,195.904 364.257,197.477 
				364.502,199.203 364.502,200.192 364.588,201.342 364.588,230.104 384.682,230.104 384.682,193.682 			"/>
			<path fill="#E57E25" d="M214.042,95.457l1.811-1.236l1.73-1.318l0.328-0.414l0.413-0.326l0.821-0.66l1.402-1.483l1.234-1.646
				l0.492-0.907l0.577-0.823l0.413-0.991l0.492-0.904l0.909-1.979h-18.862l-0.658,0.825l-0.41,0.331l-0.33,0.413l-0.906,0.656
				l-0.989,0.579l-1.155,0.413l-1.15,0.33l-1.317,0.166h-0.743l-0.658,0.08l-1.236-0.08l-1.067-0.166l-1.071-0.249l-0.906-0.247
				l-1.729-0.986l-0.823-0.577l-0.658-0.661l-1.233-1.482l-0.496-0.907l-0.33-0.822l-0.411-0.987l-0.248-0.989l-0.249-2.142h38.791
				l-0.164-4.04l-0.166-1.894l-0.165-1.73l-0.33-1.812l-0.326-1.648l-0.413-1.646l-0.33-1.485l-0.577-1.566l-0.577-1.401
				l-0.657-1.401l-0.576-1.234l-0.823-1.321l-0.742-1.151l-1.729-2.061l-1.072-1.072l-0.988-0.906l-1.153-0.905l-1.07-0.745
				l-2.471-1.397l-2.632-1.072l-2.967-0.907l-3.131-0.575l-3.461-0.413l-3.538-0.083l-3.132,0.083l-2.883,0.413l-2.797,0.575
				l-2.554,0.99l-2.554,1.07l-2.225,1.484l-2.223,1.648l-1.893,1.975l-1.895,1.978l-1.567,2.227l-1.315,2.225l-1.07,2.472
				l-0.909,2.472l-0.577,2.722l-0.327,2.717l-0.084,2.967l0.084,3.049l0.413,3.049l0.246,1.32l0.414,1.399l0.41,1.319l0.577,1.401
				l0.494,1.152l0.659,1.235l0.659,1.156l0.822,1.236l1.728,2.142l2.061,2.06l2.059,1.567l2.226,1.483l2.388,1.235l2.634,1.073
				l2.721,0.742l2.882,0.574l3.045,0.33l3.211,0.164l2.307-0.081l2.307-0.247l2.142-0.329l2.141-0.411l1.976-0.576l1.979-0.661
				l1.811-0.825l0.906-0.494L214.042,95.457L214.042,95.457L214.042,95.457z M187.113,65.793l0.412-2.144l0.742-1.812l0.903-1.567
				l1.235-1.152l1.402-1.07l0.74-0.416l0.906-0.245l1.893-0.413l2.225-0.082h0.906l0.905,0.164l0.825,0.166l0.904,0.328l0.74,0.331
				l0.742,0.495l0.658,0.494l0.742,0.661l0.988,1.233l0.82,1.565l0.494,1.567l0.165,1.895h-19.351V65.793L187.113,65.793z"/>
			<path fill="#E57E25" d="M102.123,29.451H30.391v142.064h63.251l2.141-0.084h2.223l2.143-0.164l0.495-0.084h0.575h1.153
				l0.989-0.16l0.495-0.084h0.575l2.142-0.163l4.035-0.496l0.413-0.163l0.493-0.084l0.989-0.164l1.977-0.328l3.789-0.826
				l3.624-0.987l0.824-0.327l0.413-0.169l0.495-0.083l1.81-0.492l3.295-1.32l0.329-0.248l0.413-0.165l0.823-0.329l1.647-0.658
				l1.482-0.82l0.329-0.252l0.411-0.164l0.824-0.326l1.483-0.91l1.565-0.82l2.799-1.898l1.319-1.066l1.398-0.994l1.235-1.151
				l1.321-1.069l2.47-2.228l0.987-1.235l1.072-1.152l1.977-2.473l1.892-2.638l0.823-1.401l0.907-1.318l0.741-1.484l0.824-1.4
				l1.397-2.965l1.319-3.048l1.236-3.134l0.988-3.379l0.163-0.906l0.248-0.823l0.494-1.648l0.331-1.813l0.164-0.906l0.246-0.82
				l0.66-3.626l0.411-3.79l0.165-1.98l0.084-0.987l0.166-0.907v-1.07l0.081-0.986l0.165-1.981v-2.058l0.083-1.979l-0.083-3.789
				l-0.165-3.627l-0.33-3.625l-0.327-3.46l-0.578-3.462l-0.576-3.214l-0.741-3.212l-0.824-3.05l-0.987-3.048l-1.072-2.889
				l-1.152-2.883l-1.236-2.719l-1.4-2.719l-1.48-2.473l-1.647-2.471l-1.648-2.309l-2.226-2.719l-2.304-2.475l-2.389-2.387
				l-2.555-2.061l-2.716-2.06l-2.801-1.732l-1.481-0.905l-1.399-0.741l-2.967-1.401l-3.211-1.399l-3.296-1.072l-3.457-0.907
				l-3.542-0.739l-3.706-0.58l-3.789-0.409l-3.954-0.248L102.123,29.451L102.123,29.451L102.123,29.451z M74.204,65.793h13.837h2.47
				l2.387,0.165l2.308,0.248l2.306,0.413l2.059,0.408l2.059,0.579l1.977,0.657l1.894,0.908l1.73,0.82l1.646,0.988l1.564,1.074
				l1.563,1.319l1.402,1.235l1.317,1.482l1.236,1.566l1.233,1.73l1.237,2.059l1.071,2.309l0.905,2.306l0.743,2.558l0.575,2.554
				l0.412,2.719l0.249,2.803l0.165,2.965l-0.084,1.647l-0.081,0.825v0.905l-0.167,1.563l-0.082,1.651l-0.246,1.481l-0.166,1.566
				l-0.331,1.402l-0.245,1.48l-0.494,1.317l-0.248,0.66l-0.164,0.742l-0.906,2.637l-0.577,1.156l-0.494,1.235l-0.66,1.155
				l-0.33,0.578l-0.248,0.654l-1.068,1.486l-0.577,0.658l-0.496,0.74l-1.235,1.321l-1.153,1.317l-0.741,0.496l-0.658,0.576
				l-0.742,0.494l-0.659,0.578l-1.483,0.905l-1.482,0.907l-1.729,0.656l-1.729,0.663l-1.811,0.576l-1.814,0.495l-2.058,0.326
				l-1.975,0.25l-2.144,0.162l-2.141,0.084H74.204V65.793L74.204,65.793L74.204,65.793z"/>
			<polygon fill="#E57E25" points="110.357,183.792 110.523,174.486 79.393,174.486 79.31,194.752 79.31,197.884 79.557,201.016 
				79.97,203.981 80.546,206.949 81.287,209.67 82.192,212.389 83.262,214.941 84.498,217.496 85.815,219.801 87.382,222.107 
				89.11,224.334 91.003,226.482 93.064,228.457 95.288,230.352 97.674,232.164 100.228,233.894 102.782,235.379 105.663,236.859 
				108.71,238.263 111.923,239.58 115.216,240.738 118.759,241.805 122.463,242.794 126.336,243.703 130.206,244.444 
				134.405,245.102 138.77,245.676 143.297,246.258 147.913,246.589 152.771,246.916 157.795,247.082 162.982,247.244 
				166.77,247.162 170.478,247 172.206,246.83 174.019,246.75 175.749,246.589 177.56,246.504 180.853,246.093 184.146,245.676 
				187.278,245.102 188.761,244.773 189.501,244.609 190.326,244.523 190.982,244.277 191.724,244.115 193.208,243.782 
				196.005,242.959 198.642,242.055 201.277,241.146 202.43,240.569 203.666,240.078 204.819,239.498 206.054,239.004 
				207.124,238.347 208.277,237.769 209.348,237.109 210.501,236.533 211.736,235.544 213.054,234.637 214.291,233.65 
				215.606,232.743 216.762,231.671 217.994,230.68 220.218,228.705 222.114,226.561 224.005,224.419 224.83,223.268 
				225.655,222.192 226.395,221.041 227.219,219.973 227.464,219.312 227.794,218.732 228.456,217.578 228.703,216.922 
				229.031,216.344 229.691,215.189 230.101,213.869 230.594,212.637 231.502,210.16 232.08,207.525 232.571,204.893 
				232.571,204.148 232.656,203.491 232.819,202.168 232.819,201.426 232.902,200.766 233.065,199.453 233.065,103.451 
				178.217,103.451 178.136,186.265 178.136,187.666 178.136,189.065 178.052,190.389 177.971,191.046 177.971,191.791 
				177.808,192.366 177.722,193.021 177.56,193.602 177.475,194.262 177.146,195.413 176.816,196.648 176.325,197.637 
				175.829,198.707 175.253,199.697 174.679,200.685 173.935,201.514 173.277,202.337 172.452,203.078 171.712,203.898 
				171.3,204.065 170.969,204.314 170.312,204.807 168.995,205.795 167.595,206.621 166.275,207.447 164.795,208.102 
				164.054,208.432 163.395,208.846 160.43,210.079 157.299,210.906 155.654,211.233 154.087,211.562 152.36,211.731 
				150.711,211.977 147.253,212.141 143.628,211.895 140.253,211.562 136.957,210.988 133.911,210.33 130.864,209.426 
				128.064,208.352 125.346,207.031 122.793,205.628 121.228,204.558 119.831,203.57 118.428,202.418 117.274,201.342 
				116.123,200.108 115.133,198.873 114.146,197.557 113.405,196.319 112.58,194.84 112.002,193.435 111.428,191.947 111.1,190.467 
				110.688,188.818 110.523,187.172 110.357,185.442 110.357,183.792 			"/>
		</g>
		<polygon fill="#E57E25" points="222.648,45.161 245.435,45.161 253.787,77.488 263.07,45.161 283.949,45.161 265.761,98.261 
			241.578,98.261 		"/>
	</g>
</g>
</svg>
