<?xml version="1.0" encoding="utf-8"?>
<!-- Generator: Adobe Illustrator 16.0.0, SVG Export Plug-In . SVG Version: 6.00 Build 0)  -->
<!DOCTYPE svg PUBLIC "-//W3C//DTD SVG 1.1//EN" "http://www.w3.org/Graphics/SVG/1.1/DTD/svg11.dtd">
<svg version="1.1" id="Layer_1" xmlns="http://www.w3.org/2000/svg" xmlns:xlink="http://www.w3.org/1999/xlink" x="0px" y="0px"
	 width="271.865px" height="271.863px" viewBox="0 0 271.865 271.863" enable-background="new 0 0 271.865 271.863"
	 xml:space="preserve">
<g>
	<rect fill="#E57E25" width="271.865" height="271.863"/>
	<path fill="#FFFFFF" d="M182.626,212.396c5.475,8.939,12.598,15.513,25.199,15.513c10.586,0,17.347-5.292,17.347-12.603
		c0-8.76-6.946-11.861-18.598-16.958l-6.387-2.74c-18.435-7.854-30.682-17.691-30.682-38.493c0-19.158,14.599-33.746,37.413-33.746
		c16.244,0,27.921,5.654,36.336,20.455l-19.895,12.773c-4.379-7.854-9.105-10.947-16.441-10.947c-7.48,0-12.225,4.746-12.225,10.947
		c0,7.663,4.746,10.767,15.706,15.514l6.39,2.736c21.703,9.307,33.96,18.796,33.96,40.133c0,22.999-18.067,35.6-42.333,35.6
		c-23.725,0-39.054-11.308-46.555-26.125L182.626,212.396z M92.38,214.609c4.013,7.119,7.662,13.14,16.439,13.14
		c8.393,0,13.688-3.284,13.688-16.055v-86.867h25.546v87.214c0,26.452-15.51,38.492-38.146,38.492
		c-20.455,0-32.301-10.588-38.324-23.336L92.38,214.609z"/>
</g>
</svg>
