<?xml version="1.0" encoding="utf-8"?>
<!-- Generator: Adobe Illustrator 16.0.0, SVG Export Plug-In . SVG Version: 6.00 Build 0)  -->
<!DOCTYPE svg PUBLIC "-//W3C//DTD SVG 1.1//EN" "http://www.w3.org/Graphics/SVG/1.1/DTD/svg11.dtd">
<svg version="1.1" id="Layer_1" xmlns="http://www.w3.org/2000/svg" xmlns:xlink="http://www.w3.org/1999/xlink" x="0px" y="0px"
	 width="316.897px" height="309.073px" viewBox="0 0 316.897 309.073" enable-background="new 0 0 316.897 309.073"
	 xml:space="preserve">
<g>
	<path fill-rule="evenodd" clip-rule="evenodd" fill="#FFFFFF" d="M158.449,0C70.951,0,0,70.936,0,158.449
		C0,228.455,45.4,287.848,108.357,308.8c7.918,1.466,10.826-3.438,10.826-7.624c0-3.775-0.146-16.261-0.215-29.499
		c-44.08,9.585-53.382-18.696-53.382-18.696c-7.208-18.312-17.593-23.184-17.593-23.184c-14.378-9.834,1.084-9.632,1.084-9.632
		c15.91,1.117,24.289,16.331,24.289,16.331c14.131,24.221,37.067,17.219,46.109,13.17c1.422-10.238,5.528-17.231,10.06-21.188
		c-35.195-4.005-72.192-17.593-72.192-78.304c0-17.301,6.191-31.435,16.328-42.531c-1.645-3.994-7.071-20.107,1.534-41.934
		c0,0,13.306-4.256,43.583,16.243c12.64-3.511,26.194-5.271,39.66-5.332c13.464,0.062,27.03,1.821,39.693,5.332
		c30.243-20.499,43.528-16.243,43.528-16.243c8.625,21.826,3.201,37.939,1.555,41.934c10.162,11.097,16.309,25.23,16.309,42.531
		c0,60.857-37.068,74.256-72.352,78.178c5.684,4.917,10.746,14.56,10.746,29.342c0,21.202-0.182,38.266-0.182,43.482
		c0,4.218,2.852,9.158,10.883,7.604c62.924-20.977,108.268-80.349,108.268-150.331C316.897,70.936,245.955,0,158.449,0z"/>
	<path fill="#FFFFFF" d="M60.013,227.496c-0.348,0.789-1.588,1.024-2.715,0.485c-1.151-0.518-1.794-1.593-1.422-2.382
		c0.341-0.809,1.582-1.035,2.729-0.492C59.754,225.623,60.411,226.707,60.013,227.496L60.013,227.496z M58.063,226.052"/>
	<path fill="#FFFFFF" d="M66.432,234.655c-0.755,0.7-2.234,0.374-3.237-0.731c-1.038-1.105-1.229-2.585-0.463-3.293
		c0.779-0.701,2.211-0.372,3.248,0.731C67.019,232.479,67.221,233.945,66.432,234.655L66.432,234.655z M64.92,233.033"/>
	<path fill="#FFFFFF" d="M72.679,243.779c-0.971,0.678-2.56,0.045-3.541-1.364c-0.971-1.41-0.971-3.102,0.023-3.778
		c0.981-0.676,2.547-0.066,3.542,1.33C73.671,241.4,73.671,243.092,72.679,243.779L72.679,243.779z M72.679,243.779"/>
	<path fill="#FFFFFF" d="M81.237,252.598c-0.869,0.957-2.718,0.699-4.072-0.609c-1.386-1.274-1.77-3.088-0.902-4.046
		c0.882-0.96,2.742-0.69,4.105,0.606C81.744,249.824,82.162,251.648,81.237,252.598L81.237,252.598z M81.237,252.598"/>
	<path fill="#FFFFFF" d="M93.044,257.717c-0.384,1.24-2.165,1.803-3.958,1.276c-1.794-0.543-2.964-1.997-2.604-3.249
		c0.371-1.251,2.162-1.838,3.969-1.273C92.242,255.012,93.416,256.453,93.044,257.717L93.044,257.717z M93.044,257.717"/>
	<path fill="#FFFFFF" d="M106.012,258.664c0.044,1.309-1.479,2.393-3.362,2.414c-1.894,0.044-3.429-1.015-3.449-2.301
		c0-1.32,1.489-2.391,3.382-2.424C104.467,256.318,106.012,257.368,106.012,258.664L106.012,258.664z M106.012,258.664"/>
	<path fill="#FFFFFF" d="M118.079,256.613c0.225,1.272-1.084,2.582-2.955,2.931c-1.841,0.339-3.542-0.452-3.778-1.714
		c-0.228-1.308,1.104-2.619,2.942-2.954C116.162,254.55,117.84,255.316,118.079,256.613L118.079,256.613z M118.079,256.613"/>
</g>
</svg>
