<?xml version="1.0" encoding="utf-8"?>
<!-- Generator: Adobe Illustrator 16.0.0, SVG Export Plug-In . SVG Version: 6.00 Build 0)  -->
<!DOCTYPE svg PUBLIC "-//W3C//DTD SVG 1.1//EN" "http://www.w3.org/Graphics/SVG/1.1/DTD/svg11.dtd">
<svg version="1.1" id="Layer_1" xmlns="http://www.w3.org/2000/svg" xmlns:xlink="http://www.w3.org/1999/xlink" x="0px" y="0px"
	 width="334.657px" height="334.657px" viewBox="0 0 334.657 334.657" enable-background="new 0 0 334.657 334.657"
	 xml:space="preserve">
<g>
	<g>
		<circle fill="#FFFFFF" cx="167.328" cy="167.328" r="162.455"/>
		<path d="M167.328,334.657c-22.587,0-44.5-4.425-65.133-13.151c-19.926-8.429-37.82-20.492-53.186-35.857
			c-15.365-15.366-27.431-33.261-35.858-53.186C4.425,211.829,0,189.916,0,167.328c0-22.587,4.425-44.5,13.151-65.133
			c8.428-19.926,20.493-37.82,35.858-53.187c15.365-15.364,33.26-27.43,53.186-35.857C122.828,4.425,144.741,0,167.328,0
			c22.588,0,44.502,4.425,65.134,13.151c19.926,8.428,37.82,20.493,53.187,35.857c15.365,15.366,27.43,33.261,35.857,53.187
			c8.727,20.633,13.151,42.546,13.151,65.133c0,22.588-4.425,44.501-13.151,65.135c-8.428,19.925-20.492,37.819-35.857,53.186
			c-15.366,15.365-33.261,27.429-53.187,35.857C211.83,330.232,189.916,334.657,167.328,334.657z M167.328,9.747
			c-21.275,0-41.912,4.166-61.336,12.382c-18.764,7.937-35.617,19.299-50.091,33.772s-25.836,31.326-33.772,50.091
			c-8.217,19.424-12.382,40.061-12.382,61.336s4.165,41.913,12.382,61.336c7.937,18.765,19.299,35.618,33.772,50.092
			c14.474,14.473,31.327,25.836,50.091,33.773c19.424,8.216,40.061,12.381,61.336,12.381s41.913-4.165,61.338-12.381
			c18.763-7.938,35.616-19.301,50.09-33.773c14.474-14.474,25.836-31.327,33.773-50.092c8.216-19.423,12.382-40.061,12.382-61.336
			s-4.166-41.912-12.382-61.336c-7.938-18.765-19.3-35.617-33.773-50.091s-31.327-25.836-50.09-33.772
			C209.241,13.913,188.604,9.747,167.328,9.747z"/>
	</g>
	<g>
		<circle fill="#EE2E24" cx="167.329" cy="167.328" r="101.128"/>
	</g>
	<g>
		<g>
			<circle fill="#FFFFFF" cx="167.328" cy="167.213" r="12.224"/>
		</g>
		<g>
			<path fill="#FFFFFF" d="M228.735,155.032c-4.23-3.529-10.212-6.685-17.3-9.125c-1.422-0.489-2.893-0.952-4.407-1.389
				c0.25-1.018,0.479-2.021,0.681-3.005c3.397-16.487,0.986-29.336-6.292-33.533c-1.778-1.025-3.883-1.545-6.253-1.545
				c-6.829,0-15.481,4.257-24.363,11.986c-1.136,0.988-2.272,2.033-3.408,3.128c-0.76-0.726-1.516-1.426-2.27-2.095
				c-9.223-8.189-18.61-12.887-25.756-12.887c-2.446,0-4.612,0.535-6.437,1.592c-3.571,2.067-5.997,6.285-7.016,12.196
				c-0.935,5.428-0.669,12.186,0.771,19.542c0.29,1.482,0.629,2.996,1.012,4.533c-1.749,0.498-3.441,1.029-5.066,1.596
				c-14.87,5.185-23.748,13.105-23.748,21.186c0,4.223,2.473,8.571,7.152,12.58c4.403,3.771,10.586,7.081,17.879,9.573
				c1.19,0.407,2.426,0.792,3.699,1.159c-0.411,1.66-0.771,3.29-1.073,4.886c-2.938,15.472-0.513,27.119,6.489,31.157
				c1.843,1.063,4.042,1.602,6.535,1.602c7.106,0,16.276-4.454,25.16-12.22c0.949-0.829,1.9-1.708,2.855-2.63
				c1.234,1.188,2.47,2.313,3.701,3.373c8.639,7.434,17.104,11.528,23.835,11.528c2.426,0,4.579-0.534,6.399-1.589
				c3.652-2.114,6.178-6.435,7.303-12.493c1.057-5.7,0.825-12.709-0.672-20.27c-0.236-1.194-0.512-2.416-0.82-3.659
				c0.867-0.256,1.717-0.52,2.545-0.795c15.979-5.294,25.904-13.801,25.904-22.203C235.775,163.087,233.341,158.875,228.735,155.032
				z M195.164,112.283c1.332,0,2.452,0.257,3.331,0.764c2.121,1.225,3.692,4.305,4.424,8.677c0.849,5.079,0.524,11.514-0.937,18.609
				c-0.184,0.892-0.391,1.8-0.615,2.72c-5.693-1.312-11.863-2.286-18.309-2.891c-3.771-5.363-7.673-10.235-11.57-14.44
				c1.051-1.01,2.103-1.976,3.152-2.888C182.23,116.228,189.903,112.283,195.164,112.283z M186.432,178.352
				c-2.152,3.732-4.344,7.27-6.559,10.594c-4.064,0.291-8.264,0.442-12.545,0.442s-8.416-0.13-12.38-0.385
				c-2.338-3.406-4.59-6.966-6.704-10.619c-2.116-3.655-4.067-7.345-5.839-11.021c1.776-3.704,3.725-7.41,5.82-11.044
				c2.109-3.658,4.331-7.191,6.63-10.561c4.096-0.312,8.278-0.476,12.473-0.476c4.231,0,8.41,0.161,12.486,0.471
				c2.265,3.342,4.477,6.866,6.599,10.533c2.159,3.729,4.129,7.396,5.903,10.975C190.539,170.93,188.57,174.644,186.432,178.352z
				 M195.474,174.006c1.839,4.187,3.378,8.219,4.598,12.054c-3.966,0.904-8.253,1.634-12.771,2.177
				c1.413-2.243,2.814-4.564,4.198-6.963C192.895,178.852,194.221,176.425,195.474,174.006z M167.565,204.937
				c-2.771-2.994-5.535-6.306-8.229-9.854c2.605,0.102,5.271,0.152,7.992,0.152c2.795,0,5.559-0.063,8.277-0.186
				C172.934,198.686,170.243,201.993,167.565,204.937z M147.484,188.354c-4.498-0.5-8.719-1.179-12.614-2.03
				c1.213-3.906,2.704-7.966,4.438-12.082c1.226,2.365,2.518,4.727,3.875,7.071C144.573,183.716,146.011,186.065,147.484,188.354z
				 M139.291,160.477c-1.697-4.026-3.153-7.994-4.346-11.838c3.908-0.871,8.075-1.584,12.403-2.126
				c-1.437,2.24-2.836,4.538-4.188,6.885C141.805,155.747,140.514,158.111,139.291,160.477z M167.393,129.902
				c2.693,2.919,5.396,6.184,8.055,9.726c-2.679-0.126-5.39-0.192-8.119-0.192c-2.711,0-5.401,0.063-8.06,0.186
				C161.921,136.123,164.645,132.865,167.393,129.902z M191.475,153.357c-1.355-2.342-2.748-4.627-4.167-6.851
				c4.358,0.551,8.544,1.283,12.485,2.185c-1.179,3.775-2.649,7.729-4.381,11.784C194.174,158.129,192.861,155.754,191.475,153.357z
				 M132.425,138.776c-1.305-6.666-1.562-12.692-0.747-17.428c0.704-4.087,2.19-6.974,4.183-8.127
				c0.923-0.534,2.103-0.806,3.507-0.806c5.649,0,13.826,4.266,21.874,11.412c0.682,0.605,1.366,1.238,2.053,1.895
				c-3.982,4.277-7.91,9.14-11.655,14.424c-6.437,0.593-12.594,1.549-18.275,2.841C133.009,141.559,132.694,140.153,132.425,138.776
				z M125.806,183.833c-6.6-2.256-12.12-5.189-15.966-8.483c-3.295-2.82-5.109-5.71-5.109-8.137c0-6.045,9.957-12.223,19.826-15.664
				c1.501-0.523,3.076-1.017,4.713-1.479c1.715,5.58,3.963,11.403,6.667,17.277c-2.75,5.977-5.028,11.889-6.759,17.544
				C128.016,184.555,126.891,184.203,125.806,183.833z M139.564,222.322c-1.454,0-2.67-0.275-3.614-0.82
				c-5.237-3.021-5.614-14.732-3.664-25.001c0.28-1.472,0.614-2.989,1.001-4.54c5.576,1.236,11.764,2.133,18.439,2.671
				c3.783,5.329,7.744,10.221,11.754,14.519c-0.871,0.84-1.74,1.641-2.605,2.396C153.158,218.295,145.19,222.322,139.564,222.322z
				 M202.41,195.006c2.971,15.012,0.101,24.294-3.824,26.565c-0.919,0.532-2.086,0.802-3.47,0.802
				c-2.486,0-9.414-0.984-20.021-10.111c-1.138-0.979-2.285-2.027-3.438-3.139c3.842-4.196,7.693-9.088,11.48-14.576
				c6.627-0.591,12.881-1.553,18.53-2.855C201.948,192.817,202.195,193.924,202.41,195.006z M208.031,183.865
				c-0.746,0.247-1.514,0.486-2.295,0.718c-1.723-5.46-4.05-11.283-6.936-17.353c2.732-5.891,4.979-11.65,6.66-17.078
				c1.398,0.404,2.758,0.832,4.071,1.284c6.423,2.212,11.767,5.007,15.456,8.085c3.186,2.658,4.939,5.389,4.939,7.691
				C229.928,171.739,223.075,178.881,208.031,183.865z"/>
		</g>
	</g>
	<g>
		<g>
			<path d="M66.115,67.478c0.688-0.761,1.309-1.338,1.86-1.735l3.184,3.551c-0.612,0.42-1.181,0.918-1.703,1.497
				c-1.366,1.509-1.979,3.178-1.842,5.005c0.138,1.829,0.994,3.454,2.568,4.877l9.282,8.396l-3.413,3.774L58.289,76.777l2.673-2.955
				l3.581,2.335l0.175-0.194c-0.527-1.546-0.673-3.074-0.437-4.584C64.517,69.87,65.128,68.569,66.115,67.478z"/>
		</g>
		<g>
			<path d="M97.878,72.906c-2.978,2.237-5.958,3.118-8.942,2.644c-2.984-0.476-5.621-2.236-7.911-5.284
				c-2.351-3.127-3.419-6.17-3.204-9.13c0.214-2.96,1.682-5.464,4.406-7.51c2.527-1.899,5.101-2.632,7.72-2.198
				s4.939,1.995,6.959,4.684l1.652,2.199l-12.759,9.587c1.454,1.815,3.029,2.866,4.726,3.153s3.404-0.215,5.124-1.508
				c1.131-0.85,2.104-1.747,2.919-2.694c0.815-0.946,1.596-2.089,2.342-3.426l2.485,3.307c-0.637,1.22-1.39,2.31-2.258,3.268
				C100.268,70.956,99.182,71.926,97.878,72.906z M84.541,56.707c-1.292,0.972-2.02,2.16-2.183,3.565
				c-0.163,1.404,0.27,2.948,1.298,4.63l8.691-6.53c-1.212-1.563-2.492-2.475-3.842-2.733
				C87.155,55.381,85.834,55.736,84.541,56.707z"/>
		</g>
		<g>
			<path d="M123.897,57.862l-2.307-2.614l-0.157,0.072c-0.448,1.805-1.096,3.189-1.942,4.152c-0.846,0.963-2.104,1.825-3.772,2.584
				c-2.142,0.974-4.077,1.156-5.806,0.546c-1.728-0.609-3.072-1.972-4.035-4.089c-1.021-2.246-0.958-4.32,0.19-6.223
				c1.149-1.902,3.409-3.683,6.777-5.342l3.711-1.83l-0.528-1.163c-0.633-1.393-1.433-2.287-2.396-2.681
				c-0.964-0.395-2.13-0.28-3.496,0.341c-1.117,0.508-2.113,1.159-2.988,1.954c-0.876,0.794-1.686,1.631-2.429,2.508l-3.004-2.631
				c0.902-1.156,1.982-2.213,3.243-3.175c1.259-0.962,2.513-1.727,3.762-2.294c2.772-1.261,5.14-1.607,7.103-1.041
				c1.962,0.567,3.532,2.145,4.71,4.733l6.677,14.686L123.897,57.862z M115.564,57.846c1.683-0.765,2.818-1.849,3.41-3.252
				c0.591-1.402,0.502-2.952-0.27-4.646l-0.86-1.893l-2.746,1.392c-2.146,1.069-3.566,2.156-4.263,3.258s-0.74,2.322-0.131,3.663
				c0.443,0.973,1.074,1.593,1.895,1.862C113.42,58.5,114.408,58.371,115.564,57.846z"/>
		</g>
		<g>
			<path d="M143.654,52.51c-3.534,0.805-6.453,0.387-8.76-1.258c-2.308-1.642-3.9-4.392-4.78-8.249
				c-0.896-3.927-0.622-7.165,0.817-9.714c1.439-2.55,3.975-4.238,7.606-5.066c2.463-0.562,4.784-0.609,6.964-0.144l-0.59,4.332
				c-2.283-0.338-4.107-0.353-5.473-0.04c-4.04,0.92-5.447,4.062-4.226,9.426c0.597,2.617,1.549,4.47,2.855,5.555
				c1.307,1.088,2.931,1.409,4.873,0.967c2.21-0.504,4.175-1.529,5.896-3.076l0.986,4.327c-0.769,0.723-1.629,1.312-2.584,1.767
				C146.284,51.791,145.089,52.182,143.654,52.51z"/>
		</g>
		<g>
			<path d="M164.484,45.958c1.24-0.068,2.469-0.333,3.687-0.791l0.213,3.826c-0.549,0.277-1.262,0.522-2.139,0.738
				c-0.877,0.215-1.792,0.349-2.743,0.401c-4.814,0.268-7.362-2.135-7.645-7.208l-0.717-12.886l-3.265,0.181l-0.125-2.249
				l3.399-2.054l1.448-5.155l3.135-0.175l0.296,5.319l6.811-0.379l0.214,3.848l-6.811,0.379l0.712,12.8
				c0.068,1.226,0.425,2.112,1.07,2.662C162.67,45.767,163.489,46.014,164.484,45.958z"/>
		</g>
		<g>
			<path d="M192.637,52.867c-2.904-0.701-4.916-2.301-6.035-4.799c-1.121-2.498-1.221-5.648-0.303-9.451
				c0.922-3.816,2.463-6.589,4.626-8.316c2.162-1.728,4.703-2.239,7.622-1.534c3.059,0.737,5.115,2.43,6.17,5.075l0.252,0.062
				c0.164-1.728,0.364-3.075,0.599-4.043l2.048-8.483l4.968,1.199l-7.909,32.752l-3.873-0.935l-0.125-3.26l-0.232-0.057
				C198.299,53.01,195.697,53.606,192.637,52.867z M194.93,49.188c2.034,0.492,3.653,0.277,4.855-0.643s2.127-2.661,2.776-5.222
				l0.167-0.695c0.709-2.934,0.734-5.131,0.078-6.598c-0.656-1.465-2.002-2.443-4.037-2.934c-1.739-0.42-3.25-0.04-4.53,1.145
				c-1.28,1.183-2.237,3.079-2.866,5.689c-0.623,2.582-0.643,4.66-0.058,6.234S193.104,48.748,194.93,49.188z"/>
		</g>
		<g>
			<path d="M236.038,56.773c-1.763,3.493-4.036,5.766-6.815,6.82c-2.781,1.055-5.769,0.774-8.964-0.839
				c-1.998-1.009-3.536-2.352-4.613-4.027c-1.078-1.677-1.604-3.567-1.576-5.672s0.604-4.271,1.73-6.501
				c1.75-3.466,4.006-5.724,6.767-6.771c2.762-1.048,5.759-0.755,8.993,0.879c3.093,1.561,5.038,3.793,5.838,6.695
				C238.196,50.258,237.742,53.398,236.038,56.773z M220.478,48.916c-2.492,4.937-1.915,8.324,1.731,10.166
				c3.609,1.821,6.659,0.266,9.151-4.671c2.466-4.883,1.882-8.243-1.752-10.078c-1.907-0.962-3.607-1.028-5.103-0.198
				C223.012,44.965,221.668,46.559,220.478,48.916z"/>
		</g>
		<g>
			<path d="M226.995,78.364c-1.229-0.91-2.144-1.812-2.741-2.702l2.395-3.238c0.636,0.793,1.364,1.494,2.188,2.104
				c1.74,1.288,3.341,0.945,4.801-1.027L249.542,52l4.091,3.026l-16.111,21.778c-1.467,1.984-3.099,3.103-4.893,3.356
				C230.834,80.414,228.957,79.814,226.995,78.364z M253.071,46.719c0.54-0.73,1.157-1.145,1.851-1.243
				c0.691-0.099,1.409,0.127,2.151,0.676c0.72,0.533,1.134,1.146,1.243,1.835c0.108,0.69-0.108,1.402-0.649,2.133
				c-0.515,0.696-1.12,1.098-1.816,1.201c-0.697,0.104-1.405-0.109-2.125-0.643c-0.743-0.55-1.167-1.173-1.271-1.869
				C252.351,48.113,252.556,47.416,253.071,46.719z"/>
		</g>
		<g>
			<path d="M268.715,85.707c-2.824,2.707-5.723,4.096-8.695,4.165c-2.973,0.07-5.697-1.188-8.176-3.771
				c-1.549-1.616-2.552-3.393-3.011-5.333c-0.46-1.939-0.327-3.896,0.399-5.872s1.99-3.827,3.793-5.556
				c2.805-2.688,5.682-4.066,8.634-4.136s5.683,1.202,8.19,3.818c2.397,2.501,3.489,5.252,3.277,8.255
				C272.916,80.279,271.445,83.09,268.715,85.707z M256.652,73.123c-3.991,3.826-4.574,7.213-1.746,10.162
				c2.796,2.919,6.19,2.465,10.183-1.361c3.948-3.786,4.517-7.148,1.699-10.087c-1.479-1.543-3.062-2.171-4.747-1.885
				C260.355,70.237,258.56,71.295,256.652,73.123z"/>
		</g>
	</g>
	<g>
		<g>
			<path d="M112.885,289.762c-1.014,1.947-2.5,3.072-4.459,3.374c-1.96,0.301-4.262-0.236-6.906-1.613
				c-2.656-1.383-4.58-2.895-5.771-4.539l1.904-3.659c1.781,2.301,3.682,3.977,5.701,5.027c2.607,1.358,4.321,1.25,5.142-0.325
				c0.263-0.504,0.337-1,0.224-1.487c-0.113-0.486-0.406-1.082-0.88-1.786c-0.474-0.705-1.181-1.593-2.121-2.662
				c-1.832-2.085-2.923-3.782-3.271-5.095c-0.349-1.312-0.153-2.676,0.585-4.094c0.888-1.707,2.266-2.675,4.133-2.902
				c1.868-0.227,3.985,0.275,6.354,1.508c2.344,1.221,4.314,2.85,5.912,4.887l-3.031,2.479c-1.689-2.01-3.267-3.395-4.732-4.159
				c-2.236-1.163-3.686-1.107-4.349,0.166c-0.326,0.625-0.31,1.306,0.049,2.042c0.357,0.736,1.319,1.992,2.884,3.77
				c1.314,1.494,2.208,2.699,2.678,3.616c0.471,0.917,0.705,1.814,0.706,2.693S113.385,288.8,112.885,289.762z"/>
		</g>
		<g>
			<path d="M119.81,275.524l4.939,1.638l0.331,13.536c0.084,1.94-0.016,3.706-0.299,5.296l0.154,0.052
				c0.35-0.669,0.847-1.458,1.49-2.364c0.643-0.908,3.865-5.16,9.667-12.76l4.901,1.625l-17.139,21.148
				c-3.13,3.889-6.632,5.19-10.502,3.907c-1.004-0.333-1.945-0.767-2.824-1.3l1.189-3.589c0.63,0.38,1.383,0.716,2.258,1.005
				c2.187,0.725,4.144-0.033,5.87-2.271l1.456-1.744L119.81,275.524z"/>
		</g>
		<g>
			<path d="M147.416,302.62c1.148,0.202,2.328,0.224,3.539,0.063l-0.622,3.543c-0.56,0.137-1.265,0.209-2.112,0.219
				c-0.848,0.009-1.711-0.063-2.592-0.218c-4.458-0.781-6.275-3.521-5.452-8.22l2.092-11.932l-3.022-0.529l0.364-2.083l3.546-1.153
				l2.422-4.403l2.904,0.509l-0.864,4.925l6.306,1.105l-0.624,3.563l-6.307-1.105l-2.077,11.853
				c-0.199,1.135-0.062,2.021,0.41,2.661C145.799,302.059,146.495,302.459,147.416,302.62z"/>
		</g>
		<g>
			<path d="M170.123,307.569l-0.896-3.147l-0.163-0.004c-1.109,1.349-2.218,2.26-3.323,2.734c-1.107,0.475-2.521,0.695-4.241,0.663
				c-2.208-0.041-3.921-0.669-5.139-1.885c-1.218-1.215-1.806-2.913-1.766-5.095c0.043-2.316,0.936-4.049,2.679-5.195
				c1.742-1.146,4.376-1.741,7.9-1.784l3.884-0.05l0.022-1.199c0.026-1.436-0.289-2.516-0.945-3.239
				c-0.658-0.724-1.691-1.099-3.101-1.125c-1.151-0.021-2.259,0.127-3.322,0.446c-1.062,0.319-2.086,0.7-3.069,1.143l-1.482-3.443
				c1.232-0.613,2.575-1.073,4.031-1.379c1.455-0.305,2.827-0.445,4.114-0.421c2.858,0.054,5.005,0.717,6.438,1.989
				c1.433,1.273,2.125,3.245,2.075,5.914l-0.281,15.141L170.123,307.569z M163.07,304.186c1.734,0.031,3.136-0.427,4.204-1.376
				c1.067-0.948,1.618-2.298,1.65-4.045l0.036-1.951l-2.888,0.068c-2.251,0.04-3.894,0.386-4.929,1.037s-1.566,1.667-1.592,3.05
				c-0.019,1.003,0.266,1.784,0.851,2.344C160.989,303.872,161.879,304.163,163.07,304.186z"/>
		</g>
		<g>
			<path d="M190.674,305.949c-3.361,0.517-6.066-0.072-8.115-1.767c-2.05-1.693-3.354-4.376-3.918-8.046
				c-0.573-3.737-0.1-6.75,1.421-9.04s4.008-3.699,7.463-4.229c2.344-0.359,4.521-0.247,6.528,0.336l-0.844,4.016
				c-2.115-0.471-3.822-0.606-5.121-0.407c-3.844,0.59-5.374,3.437-4.591,8.539c0.382,2.491,1.147,4.29,2.297,5.396
				s2.649,1.516,4.497,1.232c2.103-0.322,4.012-1.15,5.727-2.482l0.632,4.119c-0.767,0.624-1.614,1.118-2.539,1.479
				C193.186,305.455,192.04,305.74,190.674,305.949z"/>
		</g>
		<g>
			<path d="M201.526,300.645c-0.267-0.951-0.225-1.752,0.129-2.4c0.353-0.647,0.999-1.104,1.938-1.367
				c0.951-0.269,1.75-0.207,2.395,0.183c0.644,0.389,1.094,1.04,1.351,1.953c0.26,0.927,0.215,1.73-0.136,2.413
				c-0.35,0.683-0.994,1.156-1.934,1.419c-0.939,0.265-1.732,0.198-2.378-0.197S201.791,301.584,201.526,300.645z"/>
		</g>
		<g>
			<path d="M204.229,272.789c-0.301-0.799-0.315-1.496-0.041-2.093c0.275-0.597,0.818-1.047,1.63-1.353
				c0.786-0.297,1.479-0.312,2.079-0.047c0.6,0.267,1.051,0.798,1.352,1.597c0.287,0.761,0.295,1.442,0.022,2.045
				s-0.801,1.052-1.587,1.349c-0.812,0.307-1.518,0.323-2.121,0.051C204.96,274.066,204.516,273.55,204.229,272.789z
				 M219.006,297.604l-4.47,1.687l-7.938-21.031l4.469-1.687L219.006,297.604z"/>
		</g>
		<g>
			<path d="M238.571,275.226c1.763,3.222,2.312,6.187,1.649,8.898c-0.664,2.711-2.469,4.872-5.418,6.486
				c-1.842,1.009-3.698,1.483-5.567,1.425c-1.87-0.058-3.612-0.656-5.225-1.798c-1.612-1.141-2.981-2.739-4.107-4.796
				c-1.75-3.197-2.295-6.143-1.638-8.835c0.658-2.692,2.479-4.855,5.463-6.488c2.853-1.562,5.614-1.879,8.283-0.954
				C234.68,270.091,236.867,272.111,238.571,275.226z M224.219,283.08c2.491,4.553,5.418,5.908,8.782,4.067
				c3.329-1.821,3.747-5.009,1.257-9.561c-2.466-4.506-5.375-5.841-8.728-4.006c-1.759,0.962-2.716,2.243-2.868,3.84
				C222.509,279.019,223.027,280.904,224.219,283.08z"/>
		</g>
	</g>
</g>
</svg>
