<?xml version="1.0" encoding="utf-8"?>
<!-- Generator: Adobe Illustrator 16.0.0, SVG Export Plug-In . SVG Version: 6.00 Build 0)  -->
<!DOCTYPE svg PUBLIC "-//W3C//DTD SVG 1.1//EN" "http://www.w3.org/Graphics/SVG/1.1/DTD/svg11.dtd">
<svg version="1.1" id="Layer_1" xmlns="http://www.w3.org/2000/svg" xmlns:xlink="http://www.w3.org/1999/xlink" x="0px" y="0px"
	 width="311.614px" height="359.822px" viewBox="0 0 311.614 359.822" enable-background="new 0 0 311.614 359.822"
	 xml:space="preserve">
<polygon fill="#FFFFFF" points="311.614,269.866 155.807,359.822 0,269.866 0,89.955 155.807,0 311.614,89.955 "/>
<line fill="#FFFFFF" stroke="#F29646" stroke-miterlimit="10" stroke-dasharray="6" x1="9.744" y1="171.177" x2="9.744" y2="100.475"/>
<polyline fill="#FFFFFF" stroke="#F29646" stroke-miterlimit="10" stroke-dasharray="6" points="78.414,303.283 9.744,263.636 
	9.744,182.843 "/>
<line fill="#FFFFFF" stroke="#F29646" stroke-miterlimit="10" stroke-dasharray="6" x1="148.771" y1="343.904" x2="88.657" y2="309.197"/>
<path fill="none" stroke="#E57E25" stroke-miterlimit="10" d="M155.85,347.99"/>
<line fill="#FFFFFF" stroke="#F29646" stroke-miterlimit="10" stroke-dasharray="6" x1="222.232" y1="309.664" x2="161.97" y2="344.457"/>
<polyline fill="#FFFFFF" stroke="#F29646" stroke-miterlimit="10" stroke-dasharray="6" points="301.956,182.51 301.956,263.636 
	230.792,304.722 "/>
<line fill="#FFFFFF" stroke="#F29646" stroke-miterlimit="10" stroke-dasharray="6" x1="301.956" y1="101.843" x2="301.956" y2="170.51"/>
<path fill="none" stroke="#E57E25" stroke-miterlimit="10" d="M301.956,94.927"/>
<line fill="#FFFFFF" stroke="#F29646" stroke-miterlimit="10" stroke-dasharray="6" x1="234.959" y1="56.246" x2="296.079" y2="91.534"/>
<polyline fill="#FFFFFF" stroke="#F29646" stroke-miterlimit="10" stroke-dasharray="6" points="84.488,51.773 155.85,10.573 
	225.509,50.79 "/>
<line fill="#FFFFFF" stroke="#F29646" stroke-miterlimit="10" stroke-dasharray="6" x1="14.171" y1="92.371" x2="76.717" y2="56.26"/>
<polygon fill="none" stroke="#E57E25" stroke-miterlimit="10" points="226.31,231.781 155.441,272.315 84.31,231.63 84.31,268.557 
	155.31,309.167 226.31,268.557 "/>
<polygon fill="none" stroke="#E57E25" stroke-miterlimit="10" points="167.31,90.115 237.719,131 237.923,212.72 269.903,194.256 
	269.7,112.687 199.16,71.727 "/>
<polygon fill="none" stroke="#E57E25" stroke-miterlimit="10" points="144.548,90.115 74.139,131 73.936,212.72 41.956,194.256 
	42.159,112.687 112.699,71.727 "/>
<polygon fill="none" stroke="#F29646" stroke-miterlimit="10" points="155.547,272.315 84.31,231.63 84.31,268.557 155.19,309.167 
	"/>
<polygon fill="none" stroke="#E57E25" stroke-miterlimit="10" points="155.763,309.167 226.31,268.557 226.31,231.781 
	155.84,272.315 "/>
<polygon fill="none" stroke="#E57E25" stroke-miterlimit="10" points="237.719,131 237.923,212.72 269.903,194.256 269.7,112.687 
	"/>
<polygon fill="none" stroke="#F29646" stroke-miterlimit="10" points="74.139,131 73.936,212.72 41.956,194.256 42.159,112.687 "/>
<polygon fill="none" stroke="#E57E25" stroke-miterlimit="10" points="84.31,137.654 155.31,97.044 226.31,137.654 226.31,218.874 
	155.31,259.482 84.31,218.874 "/>
<g>
	<line fill="#FFFFFF" x1="84.31" y1="306.843" x2="84.31" y2="279.128"/>
	<g>
		<line fill="none" stroke="#F29646" stroke-miterlimit="10" x1="84.31" y1="306.843" x2="84.31" y2="303.843"/>
		
			<line fill="none" stroke="#F29646" stroke-miterlimit="10" stroke-dasharray="7.2383,7.2383" x1="84.31" y1="296.605" x2="84.31" y2="285.748"/>
		<line fill="none" stroke="#F29646" stroke-miterlimit="10" x1="84.31" y1="282.128" x2="84.31" y2="279.128"/>
	</g>
</g>
<g>
	<line fill="#FFFFFF" x1="226.31" y1="306.843" x2="226.31" y2="282.747"/>
	<g>
		<line fill="none" stroke="#F29646" stroke-miterlimit="10" x1="226.31" y1="306.843" x2="226.31" y2="303.843"/>
		
			<line fill="none" stroke="#F29646" stroke-miterlimit="10" stroke-dasharray="6.0322,6.0322" x1="226.31" y1="297.811" x2="226.31" y2="288.763"/>
		<line fill="none" stroke="#F29646" stroke-miterlimit="10" x1="226.31" y1="285.747" x2="226.31" y2="282.747"/>
	</g>
</g>
<g>
	<line fill="#FFFFFF" x1="155.85" y1="347.99" x2="155.547" y2="318.61"/>
	<g>
		<line fill="none" stroke="#F29646" stroke-miterlimit="10" x1="155.85" y1="347.99" x2="155.819" y2="344.99"/>
		
			<line fill="none" stroke="#F29646" stroke-miterlimit="10" stroke-dasharray="4.6763,4.6763" x1="155.771" y1="340.314" x2="155.602" y2="323.948"/>
		<line fill="none" stroke="#F29646" stroke-miterlimit="10" x1="155.578" y1="321.61" x2="155.547" y2="318.61"/>
	</g>
</g>
<line fill="#FFFFFF" stroke="#F29646" stroke-miterlimit="10" stroke-dasharray="6" x1="10.188" y1="95.131" x2="36.168" y2="110.02"/>
<line fill="#FFFFFF" stroke="#F29646" stroke-miterlimit="10" stroke-dasharray="6" x1="9.335" y1="176.837" x2="36.168" y2="192.215"/>
<line fill="#FFFFFF" stroke="#F29646" stroke-miterlimit="10" stroke-dasharray="6" x1="80.392" y1="53.658" x2="107.026" y2="68.922"/>
<line fill="#FFFFFF" stroke="#F29646" stroke-miterlimit="10" stroke-dasharray="6" x1="276.588" y1="191.59" x2="301.956" y2="176.837"/>
<line fill="#FFFFFF" stroke="#F29646" stroke-miterlimit="10" stroke-dasharray="6" x1="247.615" y1="125.509" x2="301.249" y2="94.209"/>
<line fill="#FFFFFF" stroke="#F29646" stroke-miterlimit="10" stroke-dasharray="6" x1="207.693" y1="67.162" x2="230.912" y2="53.658"/>
<path fill="none" stroke="#E57E25" stroke-miterlimit="10" d="M193.606,204.324l-27.562-27.556
	c-0.256-0.263-0.529-0.494-0.818-0.708l4.885-5.134c0.246-0.253,0.482-0.521,0.703-0.787c6.479,2.443,14.079,1.07,19.288-4.139
	c3.799-3.798,5.718-9.054,5.251-14.423c-0.047-0.602-0.45-1.125-1.022-1.338c-0.571-0.208-1.218-0.063-1.646,0.37l-8.829,8.827
	l-8.944-2.257l-2.534-9.221l8.828-8.829c0.432-0.434,0.572-1.075,0.368-1.648c-0.21-0.574-0.733-0.973-1.343-1.025
	c-5.361-0.463-10.618,1.453-14.416,5.25c-5.203,5.204-6.582,12.805-4.145,19.283c-0.262,0.226-0.529,0.461-0.786,0.717l-7.182,6.9
	l-13.193-13.193c-0.167-0.163-0.341-0.311-0.525-0.446c0.159-0.271,0.311-0.55,0.445-0.839c2.793,0.534,7.88-4.889,12.208-9.21
	l-12.601-12.607c-5.634,5.634-9.751,9.417-9.217,12.208c-1.291,0.627-2.438,1.396-3.252,2.213l-1.778,1.771
	c-1.148,1.157-1.846,2.593-2.092,4.086c-0.173,0.195-0.346,0.405-0.52,0.625l-0.666,0.834c-0.017,0.021-0.074,0.101-0.09,0.121
	l-0.598,0.839c-0.376,0.504-0.702,1.043-1.023,1.569c-0.115,0.196-0.236,0.394-0.355,0.589c-0.021,0.03-0.038,0.06-0.052,0.099
	l-0.27,0.498c-0.325,0.603-0.655,1.233-0.944,1.921l-0.047,0.11c-0.336,0.795-0.688,1.626-0.928,2.506l-0.122,0.378
	c-0.094,0.313-0.195,0.629-0.283,1.002l-0.248,1.213c-0.176,0.759-0.239,1.505-0.292,2.165l-0.038,0.436
	c-0.089,0.688-0.063,1.338-0.042,1.909c0.01,0.19,0.016,0.378,0.025,0.636c0.005,0.105,0.005,0.204,0.011,0.308
	c0.005,0.253,0.011,0.546,0.058,0.85l0.157,0.981c0.032,0.194,0.058,0.379,0.084,0.555c0.063,0.4,0.121,0.814,0.243,1.203
	l0.645,2.24c0.2,0.676,0.845,1.127,1.547,1.08c0.379-0.026,0.714-0.188,0.96-0.44c0.226-0.22,0.383-0.514,0.432-0.85l0.33-2.271
	c0.025-0.185,0.104-0.446,0.183-0.724c0.058-0.192,0.115-0.394,0.159-0.562l0.235-0.851c0.032-0.115,0.084-0.226,0.137-0.341
	c0.047-0.105,0.093-0.214,0.136-0.324c0.078-0.18,0.151-0.361,0.226-0.546c0.146-0.363,0.287-0.702,0.499-1.037
	c0.088-0.16,0.177-0.311,0.261-0.468c0.221-0.394,0.431-0.765,0.677-1.075c0.021-0.017,0.031-0.035,0.047-0.058l0.561-0.777
	c0.116-0.14,0.248-0.283,0.372-0.418c0.09-0.103,0.179-0.196,0.289-0.328c0.33-0.399,0.719-0.743,1.097-1.083l0.199-0.185
	c0.278-0.256,0.598-0.499,0.939-0.754c0.137-0.107,0.272-0.206,0.41-0.306c0.168-0.115,0.335-0.226,0.498-0.336
	c0.305-0.204,0.567-0.383,0.87-0.539l0.668-0.38l0.671-0.33c0.235-0.122,0.467-0.215,0.681-0.297
	c0.126-0.058,0.252-0.105,0.369-0.16c0.116-0.041,0.231-0.083,0.336-0.124c0.146-0.052,0.272-0.102,0.44-0.149l0.179-0.035
	c0.199,0.32,0.43,0.624,0.708,0.902l13.052,13.046l-27.854,26.759c-0.011,0.011-0.022,0.021-0.032,0.031
	c-3.467,3.468-4.035,8.54-0.567,12.008c3.467,3.468,8.22,2.581,11.688-0.887c0.016-0.016,0.027-0.026,0.043-0.042l24.576-25.877
	c0.142,0.168,0.283,0.341,0.446,0.498l27.556,27.561c3.085,3.086,8.095,3.086,11.184,0
	C196.691,212.418,196.691,207.409,193.606,204.324L193.606,204.324z M126.204,210.509c-1.276,1.279-3.347,1.279-4.624,0
	c-1.273-1.275-1.273-3.348,0-4.622c1.276-1.274,3.347-1.274,4.624,0C127.478,207.162,127.478,209.234,126.204,210.509
	L126.204,210.509z M126.204,210.509"/>
</svg>
